<?xml version="1.0" standalone="no"?>
<!DOCTYPE svg PUBLIC "-//W3C//DTD SVG 1.1//EN" "http://www.w3.org/Graphics/SVG/1.1/DTD/svg11.dtd" >
<svg xmlns="http://www.w3.org/2000/svg">
<metadata></metadata>
<defs>
<font id="rosarioregular" horiz-adv-x="1011" >
<font-face units-per-em="2048" ascent="1638" descent="-410" />
<missing-glyph horiz-adv-x="471" />
<glyph horiz-adv-x="2048" />
<glyph horiz-adv-x="2048" />
<glyph unicode="&#xd;" horiz-adv-x="2048" />
<glyph unicode=" "  horiz-adv-x="471" />
<glyph unicode="&#x09;" horiz-adv-x="471" />
<glyph unicode="&#xa0;" horiz-adv-x="471" />
<glyph unicode="!" horiz-adv-x="673" d="M203 109q0 57 39 96t96 39q56 0 95.5 -40t39.5 -95q0 -56 -40 -96t-95 -40t-95 40t-40 96zM217 1460q0 29 35 29h168q37 0 37 -31l-60 -1014h-121z" />
<glyph unicode="&#x22;" horiz-adv-x="751" d="M141 1139v364h170v-364q0 -6 -8 -37l-18 -74q-6 -25 -13 -54.5t-11 -49t-5 -21.5h-59q-1 2 -5 21.5t-11 49t-13 54.5l-18 74q-9 34 -9 37zM440 1139v364h172v-364l-8 -35l-18 -78l-21 -80q-2 -10 -4.5 -20.5t-3.5 -15.5t-2 -7h-59q-1 2 -5 21.5t-11 49t-13 54.5l-18 74 q-9 35 -9 37z" />
<glyph unicode="#" horiz-adv-x="1310" d="M106 483v133h277l33 248h-256v135h274l64 478h149l-67 -478h229l63 478h146l-66 -478h252v-135h-268l-35 -248h254v-133h-272l-68 -493h-145l67 493h-227l-70 -493h-143l68 493h-259zM528 616h228l35 248h-230z" />
<glyph unicode="$" horiz-adv-x="927" d="M137 59l76 125q47 -34 106 -58t109 -24q84 0 144.5 34t60.5 112q0 46 -26.5 83t-68.5 62.5t-93 49.5t-101.5 51t-92.5 59t-68.5 81t-26.5 111q0 92 49 159.5t123 100t164 37.5l20 213h147l-65 -219q117 -18 194 -65l-59 -131q-40 30 -95.5 51.5t-101.5 21.5 q-79 0 -139.5 -33.5t-60.5 -105.5q0 -46 26.5 -81.5t68.5 -60t93 -47t102.5 -48.5t93.5 -57.5t68.5 -82t26.5 -114.5q0 -141 -91 -220t-235 -92l-18 -209h-150l64 211q-68 7 -122.5 27.5t-121.5 58.5z" />
<glyph unicode="%" horiz-adv-x="1767" d="M94 1067q0 107 35.5 195t113.5 145t187 57h887l-727 -1491h-131l671 1373h-458q92 -117 92 -279q0 -96 -36.5 -186.5t-113 -153.5t-174.5 -63q-106 0 -186.5 59t-120 149.5t-39.5 194.5zM248 1059q0 -58 18.5 -118.5t63.5 -108.5t106 -48q46 0 81.5 29t54 74.5t27.5 90 t9 85.5q0 43 -9.5 89t-29 91t-55.5 74t-82 29t-83.5 -30t-58 -75.5t-31.5 -93t-11 -88.5zM1024 393q0 107 35 194.5t113 144t188 56.5q103 0 181 -59t115.5 -147.5t37.5 -188.5q0 -72 -22 -142.5t-61.5 -129t-103 -95t-139.5 -36.5q-106 0 -186 59t-119 149.5t-39 194.5z M1176 385q0 -59 19 -119.5t64.5 -107.5t106.5 -47q46 0 81 29t53.5 74t27 89.5t8.5 85.5t-9 87t-28 91.5t-55 75t-82 29.5q-61 0 -105.5 -51t-62.5 -114t-18 -122z" />
<glyph unicode="&#x26;" horiz-adv-x="1390" d="M104 379q0 238 312 428q-62 85 -90.5 156.5t-28.5 164.5q0 122 92.5 197.5t216.5 75.5q119 0 206 -69t87 -185q0 -47 -16.5 -92t-40 -79.5t-61.5 -70.5t-69.5 -59.5t-74.5 -52.5l309 -373q70 140 88 305l127 -29q-26 -217 -127 -381q22 -24 49.5 -56t38 -44.5t31 -30 t34 -22.5t40.5 -12t57.5 -8t79.5 -1v-141h-125q-88 0 -163 45.5t-150 124.5q-91 -97 -189.5 -147t-222.5 -50q-166 0 -288 119.5t-122 286.5zM279 393q0 -115 78 -186.5t194 -71.5q139 0 287 133l-179 219l-174 220q-90 -59 -148 -139.5t-58 -174.5zM463 1133 q0 -60 26.5 -115.5t73.5 -122.5q176 115 176 246q0 61 -37.5 102t-97.5 41q-64 0 -102.5 -43.5t-38.5 -107.5z" />
<glyph unicode="'" horiz-adv-x="462" d="M145 1147v364h172v-364q0 -6 -8 -37l-18 -74l-21 -82q-2 -10 -4.5 -20.5t-3.5 -15.5t-2 -7h-59q-1 2 -5 21.5t-11 49t-13 54.5l-18 74q-9 34 -9 37z" />
<glyph unicode="(" horiz-adv-x="626" d="M90 618q0 248 93 478.5t263 425.5l138 -21q-160 -198 -237 -414t-77 -469t77 -468t237 -414l-138 -19q-170 197 -263 425.5t-93 475.5z" />
<glyph unicode=")" horiz-adv-x="626" d="M43 -264q161 199 238 413t77 469t-77 469.5t-238 413.5l137 21q170 -196 263.5 -426t93.5 -478q0 -246 -93.5 -475t-263.5 -426z" />
<glyph unicode="*" horiz-adv-x="1044" d="M147 1161l43 156l263 -125l-27 -74zM240 872l194 213l70 -55l-139 -250zM434 1497h160l-35 -287h-84zM535 1030l67 47l201 -203l-129 -98zM588 1194l248 131l59 -160l-281 -57z" />
<glyph unicode="+" horiz-adv-x="1314" d="M139 440v140h439v438h143v-438h440v-140h-440v-440h-143v440h-439z" />
<glyph unicode="," horiz-adv-x="481" d="M94 131q0 54 36.5 88.5t90.5 34.5q71 0 112.5 -51t41.5 -123q0 -183 -209 -340q-36 34 -70 70q6 7 28.5 30t35.5 37.5t25 37t12 40.5q0 20 -17 37l-35 33q-51 51 -51 106z" />
<glyph unicode="-" horiz-adv-x="641" d="M84 459v153h473v-153h-473z" />
<glyph unicode="." horiz-adv-x="466" d="M86 115q0 57 39 96t96 39q55 0 95 -40t40 -95t-40 -95t-95 -40t-95 40t-40 95z" />
<glyph unicode="/" horiz-adv-x="667" d="M-10 -18l551 1507h137l-547 -1507h-141z" />
<glyph unicode="0" horiz-adv-x="1183" d="M100 508q0 149 58 269t172 192.5t264 72.5q149 0 262.5 -72.5t172 -193t58.5 -268.5q0 -111 -34.5 -208t-96.5 -170t-156 -115t-206 -42q-149 0 -263 72.5t-172.5 193.5t-58.5 269zM285 508q0 -406 309 -406q307 0 307 406q0 405 -307 405q-88 0 -150.5 -33t-96 -92 t-48 -127.5t-14.5 -152.5z" />
<glyph unicode="1" horiz-adv-x="792" d="M53 848l350 170h103v-881h231v-139h-641v139h240v690l-246 -75z" />
<glyph unicode="2" horiz-adv-x="960" d="M70 -2v108l475 476q88 88 88 184q0 62 -39.5 104.5t-101.5 42.5q-130 0 -291 -133l-84 94q74 74 184 121t213 47q132 0 222.5 -72.5t90.5 -201.5q0 -169 -219 -354l-319 -275h622l-41 -141h-800z" />
<glyph unicode="3" horiz-adv-x="839" d="M-113 -291q72 0 159 17.5t177 54.5t164 87.5t121 123.5t47 155q0 185 -190 185q-71 0 -142 -23l-55 115q56 27 113 66t113.5 89.5t92 113t35.5 122.5q0 49 -28 74.5t-76 25.5q-53 0 -121.5 -31.5t-112.5 -70.5l-96 80q110 83 188 116t195 33q108 0 173 -58.5t65 -166.5 q0 -50 -26.5 -103.5t-71 -100.5t-88 -83t-89.5 -67l27 2q89 8 153.5 -33t95.5 -112t31 -162q0 -100 -38 -185.5t-103.5 -145t-148 -105t-178 -71.5t-187 -39t-180.5 -13z" />
<glyph unicode="4" horiz-adv-x="1017" d="M25 0v82l567 938h201v-879h206l-36 -141h-170v-379h-170v379h-598zM213 141h410v676z" />
<glyph unicode="5" horiz-adv-x="772" d="M-12 -322q452 142 452 474q0 69 -33 136.5t-87.5 122t-114 96.5t-123.5 73l186 438h484l-50 -174h-362l-72 -172q156 -78 256.5 -212.5t100.5 -295.5q0 -97 -34 -184.5t-92 -154.5t-135.5 -119.5t-164.5 -85.5t-179 -48z" />
<glyph unicode="6" horiz-adv-x="1097" d="M100 481q0 276 151.5 505t403.5 386q160 98 265 127l43 -104q-233 -99 -405.5 -271.5t-235.5 -398.5q126 104 290 104q170 0 278.5 -121.5t108.5 -293.5q0 -192 -125 -316.5t-317 -124.5q-103 0 -190.5 42t-145 112.5t-89.5 162t-32 191.5zM289 475q0 -53 9 -103.5 t30 -100t51.5 -86.5t77.5 -60t104 -23q84 0 142.5 46t84 114.5t25.5 151.5q0 115 -67.5 195.5t-180.5 80.5q-141 0 -274 -137q-2 -14 -2 -39v-39z" />
<glyph unicode="7" horiz-adv-x="870" d="M31 864l41 154h757v-86l-569 -1311h-182l553 1243h-600z" />
<glyph unicode="8" horiz-adv-x="1007" d="M96 324q0 60 14 112.5t33 89.5t56.5 78.5t66 67t80.5 67.5l33 27q-22 24 -65.5 66.5t-66.5 68t-50.5 65t-39.5 84t-12 97.5q0 144 108 245t251 101q151 0 251.5 -89t100.5 -237q0 -160 -133 -286l-80 -78l-18 -19l94 -90q186 -178 186 -342q0 -175 -119.5 -275 t-298.5 -100q-159 0 -275 96t-116 251zM264 330q0 -91 65 -160.5t154 -69.5q103 0 167.5 68t64.5 172q0 114 -162 260l-74 68l-30 -27l-72 -63q-57 -57 -85 -112t-28 -136zM336 1157q0 -92 127 -215l57 -57q172 147 172 282q0 85 -50.5 145t-133.5 60q-84 0 -128 -63.5 t-44 -151.5z" />
<glyph unicode="9" horiz-adv-x="1097" d="M104 602q0 184 129 312t314 128q109 0 196.5 -39.5t144 -108.5t86.5 -161t30 -198q0 -142 -43 -271.5t-121 -236t-178.5 -194t-225.5 -159.5q-157 -88 -268 -118l-43 114q118 49 214.5 104.5t187 130.5t156.5 173t99 213q-60 -50 -136 -77.5t-154 -27.5 q-163 0 -275.5 125.5t-112.5 290.5zM291 602q0 -115 67.5 -195.5t180.5 -80.5q141 0 274 137q4 28 4 39v39q0 70 -14 132.5t-44 119t-85 89.5t-129 33q-118 0 -186 -95t-68 -218z" />
<glyph unicode=":" horiz-adv-x="677" d="M197 109q0 55 39.5 95t95.5 40t95.5 -40t39.5 -95q0 -56 -40 -96t-95 -40t-95 40t-40 96zM197 754q0 56 39.5 95.5t95.5 39.5t95.5 -39.5t39.5 -95.5t-40 -96t-95 -40t-95 40t-40 96z" />
<glyph unicode=";" horiz-adv-x="684" d="M186 131q0 54 36.5 88.5t90.5 34.5q71 0 112.5 -51t41.5 -123q0 -183 -209 -340q-36 34 -70 70q6 7 28.5 30t35.5 37.5t25 37t12 40.5q0 20 -17 37l-34 33q-52 52 -52 106zM197 754q0 56 39.5 95.5t95.5 39.5t95.5 -39.5t39.5 -95.5q0 -57 -39 -96.5t-96 -39.5 q-55 0 -95 40t-40 96z" />
<glyph unicode="&#x3c;" horiz-adv-x="1290" d="M135 438v150l1020 442v-158l-829 -362l829 -363v-155z" />
<glyph unicode="=" horiz-adv-x="1290" d="M139 231v144h1022v-144h-1022zM139 627v143h1022v-143h-1022z" />
<glyph unicode="&#x3e;" horiz-adv-x="1290" d="M135 -8v155l830 363l-830 362v158l1020 -442v-150z" />
<glyph unicode="?" horiz-adv-x="897" d="M104 1415q45 33 123.5 49.5t147.5 16.5q63 0 123 -13.5t113.5 -42t94 -68.5t64 -97.5t23.5 -124.5q0 -124 -84 -231t-205 -144q-35 -11 -42 -21.5t-7 -42.5v-252h-133v400q118 19 204 92t86 186q0 105 -74.5 169.5t-181.5 64.5q-49 0 -106 -15.5t-90 -42.5zM246 109 q0 57 39 96t96 39q55 0 95 -40t40 -95q0 -56 -40 -96t-95 -40t-95 40t-40 96z" />
<glyph unicode="@" horiz-adv-x="1701" d="M104 393q0 126 36.5 251.5t108 236t169.5 196t230 135.5t280 50q136 0 257 -42.5t212.5 -120.5t144.5 -197.5t53 -264.5q0 -98 -27.5 -192t-75.5 -170t-122.5 -122.5t-161.5 -46.5q-54 0 -95.5 15t-65 38.5t-34 40t-16.5 31.5h-2q-1 0 -2 1t-2 1q-43 -62 -107 -96.5 t-128 -34.5q-65 0 -114 24t-77.5 66.5t-42.5 95.5t-14 115q0 51 12.5 107.5t36 112t59.5 105.5t80.5 89t102.5 61.5t121 22.5q107 0 172 -74l18 29l14 31h76l-41 -277l-16 -104l-13 -94q-12 -85 -12 -111q0 -106 94 -106q83 0 149 66t99 165.5t33 210.5q0 125 -45 228 t-122 170.5t-179.5 104t-218.5 36.5q-131 0 -247.5 -45t-201.5 -121.5t-147.5 -177t-93.5 -213t-31 -226.5q0 -244 153.5 -406.5t389.5 -162.5q77 0 163 22l25 -84q-92 -24 -188 -24q-139 0 -259.5 50.5t-205 137.5t-133 208.5t-48.5 258.5zM659 399q0 -196 125 -196 q28 0 53.5 9.5t46 30t37.5 41.5t31.5 56.5t25 62t20.5 70t16 69t13 71.5t9.5 63.5t7.5 58.5q-63 66 -131 66q-63 0 -114.5 -44t-80.5 -109.5t-44 -130.5t-15 -118z" />
<glyph unicode="A" horiz-adv-x="1292" d="M37 0l518 1491h186l516 -1491h-210l-173 512h-491l-174 -512h-172zM430 651h397l-196 590z" />
<glyph unicode="B" horiz-adv-x="1257" d="M145 1491h498q453 0 453 -346q0 -120 -69 -216t-183 -116q149 -24 234 -132.5t85 -262.5q0 -103 -33.5 -179.5t-87 -121t-132.5 -72t-156.5 -36.5t-173.5 -9h-406v1356q-2 6 -4 20l-10 45l-8 45q-3 21 -7 25zM365 141h227q85 0 148.5 14t115 47.5t78.5 95t27 151.5 q0 74 -32 131t-86 89t-117.5 48t-133.5 16h-227v-592zM365 874h219q151 0 232 61t81 206q0 209 -260 209h-272v-476z" />
<glyph unicode="C" horiz-adv-x="1277" d="M94 750q0 161 46.5 299.5t134 241.5t220.5 161.5t298 58.5q120 0 249.5 -41.5t196.5 -119.5l-106 -119q-59 64 -156 100.5t-189 36.5q-102 0 -185 -36.5t-138 -97.5t-92.5 -143.5t-53.5 -170.5t-16 -183q0 -98 17 -185.5t54.5 -165.5t93.5 -134.5t139 -89.5t186 -33 q93 0 194 34.5t168 92.5l88 -137q-80 -68 -210 -106t-245 -38q-164 0 -297.5 62t-219 169t-131.5 246.5t-46 297.5z" />
<glyph unicode="D" horiz-adv-x="1431" d="M147 1491h383q191 0 337 -41.5t252.5 -130t162 -234t55.5 -344.5q0 -131 -25.5 -243t-79.5 -204.5t-133 -157.5t-190 -100.5t-247 -35.5h-486v1356q-2 6 -4 20l-8 45l-12 45l-2 12t-2 9t-1 4zM367 141h270q109 0 195 31.5t143 85.5t94.5 131.5t53.5 165t16 190.5 q0 317 -155 461t-468 144h-149v-1209z" />
<glyph unicode="E" horiz-adv-x="1124" d="M147 1491h895v-141h-675v-514h524v-140h-524v-555h675v-141h-866v1356q-2 6 -4 20l-8 45l-12 45l-2 12t-2 9t-1 4z" />
<glyph unicode="F" horiz-adv-x="1044" d="M147 1491h826v-141h-606v-514h481v-140h-481v-696h-191v1356q-2 6 -4 20l-8 45l-12 45l-2 12t-2 9t-1 4z" />
<glyph unicode="G" horiz-adv-x="1447" d="M96 727q0 166 43.5 307t127.5 248t217.5 168t303.5 61q132 0 271.5 -43.5t218.5 -126.5l-109 -127q-106 84 -183.5 117t-197.5 33q-104 0 -188 -34t-140 -92t-93 -138t-53.5 -168.5t-16.5 -186.5q0 -94 15 -180t50.5 -167t88 -140.5t134.5 -95t183 -35.5q158 0 256 103.5 t98 263.5v135h-366l24 139h535v-428q0 -51 3 -107.5t8 -125t7 -107.5h-102l-66 156q-91 -97 -192.5 -139t-237.5 -42q-126 0 -232 40t-180 110t-126 165t-76.5 205.5t-24.5 231.5z" />
<glyph unicode="H" horiz-adv-x="1462" d="M150 1491h219v-647h725v647h190v-1491h-190v705h-725v-705h-191v1356q-2 6 -4 20l-10 45l-8 45q-3 22 -6 25z" />
<glyph unicode="I" horiz-adv-x="548" d="M150 1491h219v-1491h-191v1356q-2 6 -4 20l-10 45l-8 45q-3 22 -6 25z" />
<glyph unicode="J" horiz-adv-x="548" d="M-47 -326q39 6 71.5 20.5t55 37.5t40 49t28 60t17.5 64.5t10 70.5t4 69t1 68v1243l-30 135h221v-1366q0 -94 -8.5 -166t-34 -143.5t-68 -120.5t-114.5 -83t-169 -44z" />
<glyph unicode="K" horiz-adv-x="1193" d="M147 1491h220v-666l591 666h199l-588 -664l625 -827h-238l-589 776v-776h-191v1356q-2 6 -4 20l-8 45l-12 45l-2 12t-2 9t-1 4z" />
<glyph unicode="L" horiz-adv-x="1052" d="M147 1491h220v-1350h626v-141h-817v1356q-2 6 -4 20l-8 45l-12 45l-2 12t-2 9t-1 4z" />
<glyph unicode="M" horiz-adv-x="1716" d="M152 1491h276l434 -1161l428 1161h248v-1491h-188v1219l-449 -1221h-115l-448 1221v-1219h-156v1356z" />
<glyph unicode="N" horiz-adv-x="1462" d="M150 1491h253l725 -1116v1116h156v-1501h-121l-829 1270v-1260h-156v1356q-2 6 -4 20l-10 45l-8 45q-3 22 -6 25z" />
<glyph unicode="O" horiz-adv-x="1509" d="M94 743q0 125 25 237.5t78.5 210t130.5 168.5t186.5 111.5t241.5 40.5q131 0 240.5 -41t186 -112t129.5 -168.5t78 -210t25 -236.5t-25.5 -237t-79 -210t-130.5 -167.5t-186.5 -111t-239.5 -40.5q-129 0 -238 40.5t-186 111.5t-130.5 168t-79.5 209.5t-26 236.5zM297 741 q0 -92 14 -177.5t48 -168t85.5 -143.5t131.5 -98t180 -37q101 0 181.5 37t131.5 98t85.5 143.5t48.5 168.5t14 179q0 77 -10.5 149t-32 143.5t-58.5 131t-86.5 105t-119.5 71t-154 25.5q-100 0 -180 -37t-131.5 -98t-85.5 -144t-48 -169t-14 -179z" />
<glyph unicode="P" horiz-adv-x="1177" d="M145 1491h447q113 0 203.5 -26t158 -79.5t104 -141t36.5 -204.5q0 -145 -67.5 -248.5t-179 -152.5t-253.5 -49h-227v-590h-191v1356zM367 729h223q140 0 222.5 84.5t82.5 226.5q0 147 -78 228.5t-225 81.5h-225v-621z" />
<glyph unicode="Q" horiz-adv-x="1509" d="M94 743q0 124 25 236.5t78.5 210t130.5 168.5t186.5 112t241.5 41q131 0 240.5 -41t186 -113t129.5 -169.5t78 -209.5t25 -235q0 -153 -39.5 -288.5t-133 -251.5t-232.5 -174q8 -7 12 -9l18 -6l103 -51l143 -69q190 -91 378.5 -154.5t320.5 -63.5q61 0 166.5 20t181.5 44 l32 -98q-128 -50 -224.5 -73.5t-225.5 -23.5q-195 0 -543 148l-180 82l-164 78l-131 61q-76 33 -131 45l-137 31q-140 32 -244.5 103t-167 171.5t-93 220t-30.5 258.5zM297 741q0 -92 14.5 -178.5t49 -168.5t86 -142.5t131 -97.5t178.5 -37q100 0 180 36.5t131.5 96.5 t86 142t49 169t14.5 182q0 94 -14.5 181t-49 169t-86 142t-131.5 96.5t-180 36.5t-179.5 -37t-131 -97.5t-85.5 -143t-48.5 -169t-14.5 -180.5z" />
<glyph unicode="R" horiz-adv-x="1210" d="M145 1491h445q89 0 162 -12t138 -41.5t109 -75.5t69.5 -118t25.5 -165q0 -122 -83 -227.5t-202 -142.5l418 -709h-221l-385 674q-46 -4 -74 -4h-80h-102v-670h-191v1356q-2 6 -4 20l-10 45l-8 45q-3 21 -7 25zM365 809h163q81 0 143.5 13t115 43.5t80.5 87.5t28 139 q0 124 -89 191t-216 67h-225v-541z" />
<glyph unicode="S" horiz-adv-x="1056" d="M66 86l73 168q67 -60 162 -95.5t186 -35.5q54 0 105.5 15t96 44.5t72 80.5t27.5 116q0 79 -37.5 139t-98 98t-133 71t-145 69.5t-133 81t-98 117t-37.5 167.5q0 93 40 168.5t107 122.5t149.5 72.5t170.5 25.5q206 0 385 -110l-94 -137q-142 102 -293 102q-116 0 -188 -57 t-72 -170q0 -50 23.5 -92t63 -72t90.5 -57t107.5 -53.5t113 -54.5t107.5 -66t90.5 -83.5t63 -110.5t23.5 -144q0 -107 -41.5 -191t-113.5 -135.5t-162.5 -78t-194.5 -26.5q-201 0 -415 111z" />
<glyph unicode="T" horiz-adv-x="1183" d="M49 1350v141h1086v-141h-449v-1350h-194v1350h-443z" />
<glyph unicode="U" horiz-adv-x="1447" d="M145 1491h226v-991q0 -182 88 -282.5t268 -100.5q186 0 285.5 111t99.5 300v963h158v-963q0 -263 -144 -408t-407 -145q-261 0 -402 134t-141 391v856z" />
<glyph unicode="V" horiz-adv-x="1234" d="M43 1491h203l385 -1159l397 1161h164l-516 -1499h-119z" />
<glyph unicode="W" horiz-adv-x="1830" d="M43 1491h201l309 -1143l307 1143h152l307 -1143l309 1143h160l-408 -1501h-157l-305 1118l-304 -1118h-157z" />
<glyph unicode="X" horiz-adv-x="1198" d="M25 0l473 762l-435 729h220l327 -547l340 547h178l-434 -690l480 -801h-224l-366 614l-383 -614h-176z" />
<glyph unicode="Y" horiz-adv-x="1196" d="M66 1491h221l346 -580l321 580h179l-428 -754v-737h-195v737z" />
<glyph unicode="Z" horiz-adv-x="1169" d="M72 0v137l774 1213h-729v141h956v-137l-774 -1213h801l-17 -141h-1011z" />
<glyph unicode="[" horiz-adv-x="718" d="M147 -262v1757h426v-100h-260v-1557h260v-100h-426z" />
<glyph unicode="\" horiz-adv-x="667" d="M-6 1491h141l539 -1491h-137z" />
<glyph unicode="]" horiz-adv-x="716" d="M145 1395v100h426v-1755h-424v100h259v1555h-261z" />
<glyph unicode="^" horiz-adv-x="1265" d="M115 0l440 1018h152l444 -1018h-156l-362 829l-361 -829h-157z" />
<glyph unicode="_" horiz-adv-x="1021" d="M-18 -135h1060v-123h-1060v123z" />
<glyph unicode="`" horiz-adv-x="575" d="M63 1491h252l195 -311h-160z" />
<glyph unicode="a" d="M90 246q0 350 584 350v109q0 204 -170 204q-80 0 -162 -32t-131 -89l-84 121q170 133 391 133q160 0 243 -87t83 -248v-508q0 -41 9 -59.5t36 -18.5l16 4l29 10l33 8q14 3 18 7l35 -107q-11 -4 -44.5 -18.5t-52.5 -21.5t-48 -14t-52 -7q-60 0 -97 38t-48 101 q-63 -66 -142.5 -105t-164.5 -39q-125 0 -203 72t-78 197zM264 252q0 -65 43.5 -98t118.5 -33q105 0 176.5 85t71.5 191v66q-41 0 -70 -1t-75 -5t-79 -12t-70.5 -24t-61 -37.5t-39 -55.5t-15.5 -76z" />
<glyph unicode="b" horiz-adv-x="1142" d="M139 1561h199v-635q66 60 132.5 86t154.5 26q103 0 186 -46t133.5 -121.5t77.5 -167t27 -189.5q0 -106 -28 -201.5t-82 -172t-141.5 -122t-197.5 -45.5q-88 0 -166.5 33t-132.5 98l-37 -106h-102l4 72q2 25 2 69v1303l-4 20l-8 37q-3 11 -7 26t-7 24.5t-3 11.5zM338 408 q0 -140 61.5 -224t194.5 -84q73 0 128.5 40t85 103.5t44 130.5t14.5 134q0 71 -16 136.5t-48 122.5t-89 91.5t-131 34.5q-66 0 -130.5 -31t-113.5 -82v-372z" />
<glyph unicode="c" horiz-adv-x="921" d="M90 508q0 150 56 270t168.5 192t263.5 72q72 0 152 -29t142 -75l-92 -119q-58 51 -107 70.5t-122 19.5q-70 0 -125.5 -36.5t-87.5 -94.5t-49 -123t-17 -129q0 -68 17 -137.5t50 -132t91 -102t131 -39.5t125 20.5t123 69.5l78 -129q-92 -58 -162.5 -80.5t-173.5 -22.5 t-191.5 46.5t-146.5 122.5t-90.5 171.5t-32.5 194.5z" />
<glyph unicode="d" horiz-adv-x="1142" d="M92 500q0 107 28.5 202.5t83 171.5t143.5 121t200 45q153 0 256 -90v490l-29 121h197v-1268q0 -73 16 -154t47 -135l-180 -22q-32 75 -39 139q-54 -69 -134 -108.5t-167 -39.5q-103 0 -186 46t-133 122t-76.5 168t-26.5 191zM272 512q0 -58 9.5 -112t31.5 -105t55 -88.5 t83.5 -60.5t113.5 -23q121 0 238 135v344q0 132 -62.5 215.5t-189.5 83.5q-77 0 -133.5 -34.5t-87 -93t-44.5 -123.5t-14 -138z" />
<glyph unicode="e" d="M90 498q0 81 16.5 158.5t52.5 147.5t87 123t125 84t161 31q178 0 287 -105t109 -282q0 -131 -105 -131h-553v-20q0 -67 18.5 -134t54 -124.5t94 -93t130.5 -35.5q67 0 140.5 26t123.5 68l76 -123q-138 -115 -344 -115q-112 0 -202.5 41t-149 112.5t-90 166.5t-31.5 205z M283 651h428q23 0 28.5 8.5t5.5 34.5q0 92 -53 155.5t-143 63.5q-97 0 -172 -80.5t-94 -181.5z" />
<glyph unicode="f" horiz-adv-x="589" d="M41 891v106l49 4q95 7 109 78q5 23 22 129q31 167 133.5 268t266.5 101q112 0 198 -51l-47 -127q-60 51 -147 51q-58 0 -102.5 -19t-72.5 -54t-46.5 -75t-27 -93t-11.5 -96t-3 -95h293l-37 -127h-256v-891h-167v891h-154z" />
<glyph unicode="g" horiz-adv-x="976" d="M43 -213q0 133 158 242q-44 24 -69.5 63.5t-25.5 85.5q0 7 4.5 14.5t11 15.5t9.5 13l64 88q34 50 53 88q-73 50 -115.5 127t-42.5 164q0 148 106 251t255 103q40 0 113.5 -14t111.5 -14q98 0 325 30l-36 -147h-220q68 -85 68 -207q0 -148 -105.5 -251t-254.5 -103 q-16 0 -41 4t-37 4q-29 0 -55.5 -40t-26.5 -73q0 -22 8.5 -37t18.5 -22.5t30.5 -11t32 -4t35.5 -0.5q33 0 100 3t98 3q320 0 320 -215q0 -88 -30.5 -159.5t-81 -119t-119 -79.5t-142.5 -46t-153 -14q-49 0 -97.5 8t-98 27t-87 47.5t-61 74t-23.5 101.5zM219 -178 q0 -68 71.5 -111t149.5 -43q57 0 113 11.5t108 36t84.5 69t32.5 102.5q0 38 -18.5 62t-53 34.5t-64.5 13.5t-73 3q-122 0 -245 -6q-44 -31 -74.5 -79t-30.5 -93zM268 690q0 -97 54 -164t129 -67q76 0 130 66t54 163t-54 164.5t-128 67.5q-76 0 -130.5 -66.5t-54.5 -163.5z " />
<glyph unicode="h" horiz-adv-x="1120" d="M141 1561h195v-664q158 147 309 147q161 0 235 -96t74 -266v-682h-168v627q0 46 -2 76.5t-11.5 70t-26.5 63t-50 40t-80 16.5q-117 0 -280 -135v-758h-168v1440q0 1 -13.5 58t-13.5 63z" />
<glyph unicode="i" horiz-adv-x="514" d="M131 1360q0 51 36 88t87 37t88 -37t37 -88q0 -54 -35.5 -89.5t-89.5 -35.5q-51 0 -87 37t-36 88zM147 1018h195v-1018h-170v897q0 2 -12.5 58t-12.5 63z" />
<glyph unicode="j" horiz-adv-x="514" d="M23 -385q36 19 63 46t42.5 64.5t25 68t13 80t4.5 76t1 77.5v870q0 1 -13.5 58t-13.5 63h197v-967q0 -480 -291 -518zM133 1360q0 51 37 88t88 37t88 -37t37 -88q0 -54 -35.5 -89.5t-89.5 -35.5t-89.5 35.5t-35.5 89.5z" />
<glyph unicode="k" horiz-adv-x="950" d="M139 1561h197v-963l381 420h182l-391 -428l446 -590h-202l-416 553v-553h-170v1440q0 1 -13.5 58t-13.5 63z" />
<glyph unicode="l" horiz-adv-x="514" d="M145 1561h197v-1561h-170v1442q0 2 -13.5 57t-13.5 62z" />
<glyph unicode="m" horiz-adv-x="1697" d="M98 1012l187 20q32 -82 39 -141q63 63 142 107t155 44q100 0 169 -40.5t111 -129.5q170 170 318 170q160 0 235.5 -96.5t75.5 -265.5v-680h-170v625q0 36 -2 63t-7 60t-17 56.5t-30 44.5t-47 31.5t-67 10.5q-123 0 -262 -139q4 -46 4 -72v-680h-170v625q0 45 -2.5 76.5 t-12 70t-27 62.5t-50 40.5t-78.5 16.5q-90 0 -203 -90l-55 -45v-756h-170v739q0 70 -16.5 145.5t-49.5 127.5z" />
<glyph unicode="n" horiz-adv-x="1120" d="M96 1010l187 24q31 -82 39 -145q68 68 150 110.5t167 42.5q160 0 235.5 -96.5t75.5 -265.5v-680h-168v625q0 47 -2 77.5t-11.5 70t-27 62.5t-51 39.5t-80.5 16.5q-70 0 -143.5 -39t-134.5 -96v-756h-168v721q0 72 -17 156t-51 133z" />
<glyph unicode="o" horiz-adv-x="1097" d="M90 508q0 103 30.5 198.5t87 170.5t145 120t196.5 45q110 0 199 -44t145.5 -118.5t86.5 -170t30 -201.5t-30 -201.5t-86.5 -170.5t-145.5 -119t-199 -44q-109 0 -198 44.5t-145 119.5t-86 170.5t-30 200.5zM270 508q0 -65 16.5 -132.5t48 -130.5t87.5 -103t127 -40 q61 0 110.5 26t80.5 67t51.5 95.5t29 108.5t8.5 109q0 69 -15 136.5t-46 129.5t-88 100.5t-131 38.5q-61 0 -110 -25.5t-80 -66.5t-51.5 -95.5t-29 -108.5t-8.5 -109z" />
<glyph unicode="p" horiz-adv-x="1138" d="M102 1010l181 22q31 -75 39 -139q55 68 133.5 107.5t165.5 39.5q84 0 154.5 -30t119.5 -81t83 -119t50 -143t16 -153q0 -107 -29 -203t-84 -172.5t-143.5 -121t-199.5 -44.5q-157 0 -254 90v-385l28 -120h-196v1163q0 73 -16 155.5t-48 133.5zM334 412q0 -132 62 -215.5 t188 -83.5q62 0 111.5 23.5t80.5 61.5t51.5 89.5t28.5 104.5t8 110q0 74 -16 140t-49 123.5t-92 91.5t-138 34q-122 0 -235 -135v-344z" />
<glyph unicode="q" horiz-adv-x="1138" d="M90 502q0 106 27.5 201t81 172t141 122t197.5 45q89 0 168 -33.5t133 -99.5l36 109h103l-4 -72q-2 -23 -2 -69v-1199q0 -1 13 -57.5t13 -62.5h-196v530q-67 -61 -132 -87t-155 -26q-103 0 -186 46.5t-133.5 123t-77.5 168.5t-27 189zM272 508q0 -71 16 -136.5 t48.5 -122.5t89.5 -91.5t131 -34.5q66 0 133.5 31t110.5 82v370q0 140 -61.5 223.5t-194.5 83.5q-73 0 -128.5 -39.5t-85.5 -102.5t-44.5 -129.5t-14.5 -133.5z" />
<glyph unicode="r" horiz-adv-x="714" d="M100 1014l185 22q38 -90 47 -190q55 86 144 138t190 52l-41 -180q-92 0 -160.5 -47t-128.5 -133v-676h-170v737q0 69 -17 149t-49 128z" />
<glyph unicode="s" horiz-adv-x="880" d="M104 59l72 125q118 -82 217 -82q52 0 95.5 11t77.5 45t34 88q0 46 -26.5 83t-68.5 62.5t-92.5 49t-101.5 50t-93 59t-68.5 82.5t-26.5 113q0 98 53 167t132 99.5t173 30.5q157 0 273 -71l-60 -131q-40 31 -94.5 52t-99.5 21q-50 0 -92.5 -11t-76.5 -44t-34 -84 q0 -46 26.5 -82.5t68.5 -62t93 -49t102.5 -51t93.5 -60.5t68.5 -84t26.5 -115q0 -79 -30 -138t-82.5 -93t-116 -50t-137.5 -16q-85 0 -153 20.5t-153 65.5z" />
<glyph unicode="t" horiz-adv-x="669" d="M41 889v102q47 2 85 24t61.5 52t43 77t29 82t19.5 83h129q-46 -184 -46 -291h267l-37 -129h-230v-651q0 -65 23.5 -97t85.5 -32q47 0 129 20l29 -115q-109 -37 -203 -37q-126 0 -179.5 66t-53.5 199v647h-152z" />
<glyph unicode="u" horiz-adv-x="1132" d="M137 1018h197v-627q0 -43 2.5 -75t12.5 -70t27.5 -62.5t50 -41.5t77.5 -17q116 0 197 73t81 187v512q0 1 -13 58t-13 63h196v-819q0 -41 9 -59.5t36 -18.5q1 0 3 0.5t5.5 1.5t6.5 2l32 10l31 8q15 3 19 7l34 -107q-12 -5 -45 -18.5t-52 -21t-47.5 -14.5t-51.5 -7 q-60 0 -96.5 38t-47.5 101q-64 -65 -146.5 -106.5t-166.5 -41.5q-160 0 -235.5 97t-75.5 266v561q0 1 -13.5 58t-13.5 63z" />
<glyph unicode="v" horiz-adv-x="931" d="M25 1018h180l272 -774l271 774h159l-364 -1030h-156z" />
<glyph unicode="w" horiz-adv-x="1347" d="M27 1018h176l207 -696l217 696h121l208 -696l215 696h152l-322 -1030h-122l-207 704l-219 -704h-125z" />
<glyph unicode="x" horiz-adv-x="913" d="M20 -2l340 522l-317 498h195l223 -352l235 352h166l-315 -479l346 -541h-195l-252 395l-258 -395h-168z" />
<glyph unicode="y" horiz-adv-x="933" d="M25 1018h184l270 -774l271 774h159l-360 -1022q-20 -60 -43 -113.5t-59.5 -116t-77 -106.5t-96.5 -74t-117 -30h-78v137h22q49 0 91.5 21t72 50.5t57 75.5t43 82.5t33.5 85.5z" />
<glyph unicode="z" horiz-adv-x="911" d="M66 0v96l526 791h-479v131h708v-98l-528 -791h553l-23 -129h-757z" />
<glyph unicode="{" horiz-adv-x="714" d="M119 569v93q42 0 69.5 17.5t40 49t17 61.5t4.5 70v314q0 162 71.5 247.5t231.5 85.5h45v-96q-114 0 -148 -35t-34 -145v-348q0 -223 -135 -269q41 -15 69 -43t42 -65.5t19 -74.5t5 -83v-364q0 -99 39.5 -131.5t142.5 -32.5v-96h-51q-156 0 -226.5 85.5t-70.5 247.5v336 q0 75 -31 125.5t-100 50.5z" />
<glyph unicode="|" horiz-adv-x="481" d="M168 -219v1751h145v-1751h-145z" />
<glyph unicode="}" horiz-adv-x="714" d="M119 -180q111 0 145.5 36t34.5 144v348q0 46 5 83t19 74.5t42 65.5t69 43q-135 46 -135 269v364q0 100 -38.5 132t-141.5 32v96h14q174 0 253 -78t79 -255v-336q0 -76 30.5 -126t102.5 -50v-93q-35 0 -60 -12.5t-39 -31t-22 -46.5t-10 -52t-2 -56v-314q0 -161 -71.5 -247 t-229.5 -86h-45v96z" />
<glyph unicode="~" horiz-adv-x="1357" d="M172 502q40 86 116 146.5t165 60.5q42 0 90 -12.5t75.5 -23.5t79.5 -34l105 -49q51 -23 90 -23q56 0 106.5 41.5t79.5 98.5l107 -97q-49 -77 -131 -136.5t-162 -59.5q-55 0 -116 22t-106.5 48.5t-105 48.5t-112.5 22t-98 -42t-74 -101z" />
<glyph unicode="&#xa1;" horiz-adv-x="673" d="M201 1122q0 56 40.5 95.5t96.5 39.5t95.5 -39.5t39.5 -95.5q-2 -56 -41 -95.5t-94 -39.5q-57 0 -97 39t-40 96zM219 -225l60 1009h118l62 -1013q0 -29 -37 -29h-166q-37 0 -37 33z" />
<glyph unicode="&#xa2;" horiz-adv-x="921" d="M84 506q0 218 114.5 365t325.5 167l21 215h151l-61 -219q135 -24 231 -98l-90 -119q-66 53 -110 71.5t-121 18.5q-70 0 -125.5 -36.5t-87.5 -94.5t-49 -123t-17 -129q0 -68 17 -137.5t50 -132t91 -102t131 -39.5q74 0 126 20.5t122 69.5l78 -131q-149 -101 -322 -101h-31 l-20 -213h-148l64 230q-114 32 -192.5 112.5t-113 183t-34.5 222.5z" />
<glyph unicode="&#xa3;" horiz-adv-x="1189" d="M115 0v141h190v594h-155v139h155v242q0 186 111.5 290.5t298.5 104.5q110 0 204 -53t154 -147l-153 -86q-33 65 -86 105t-121 40q-104 0 -159.5 -71t-55.5 -179v-246h264v-139h-264v-594h598v-141h-981z" />
<glyph unicode="&#xa4;" horiz-adv-x="1097" d="M96 334l115 115q-64 108 -64 231q0 122 66 231l-117 117l101 100l110 -112q103 86 238 86q131 0 235 -84l113 110l49 -51l51 -49l-119 -117q68 -113 68 -231q0 -121 -68 -234l119 -114l-51 -49l-49 -50l-57 54l-54 55q-103 -86 -237 -86t-240 86l-53 -55l-55 -54l-50 50 q-24 27 -51 51zM297 680q0 -130 74 -214.5t174 -84.5q102 0 176 84t74 215q0 124 -72 210.5t-178 86.5q-105 0 -176.5 -86.5t-71.5 -210.5z" />
<glyph unicode="&#xa5;" horiz-adv-x="1028" d="M66 1016h186l276 -387l258 387h156l-248 -365h201v-96h-266l-37 -51v-72h303v-98h-303v-334h-166v334h-299v98h299v72l-37 51h-262v96h195z" />
<glyph unicode="&#xa6;" horiz-adv-x="487" d="M172 -236v713h139v-713h-139zM172 805v715h139v-715h-139z" />
<glyph unicode="&#xa7;" horiz-adv-x="1017" d="M109 729q0 102 61 168t164 92q-58 65 -83.5 113t-25.5 119q0 124 93.5 201t222.5 77q205 0 315 -176l-111 -82q-40 58 -94.5 97.5t-115.5 39.5q-59 0 -102.5 -38.5t-43.5 -96.5q0 -41 30 -86.5t78.5 -89t107 -90t116.5 -97.5t106.5 -103.5t78.5 -115.5t30 -126 q0 -96 -56 -165.5t-151 -99.5q55 -61 82 -117.5t27 -129.5q0 -137 -99 -218t-239 -81q-102 0 -196 51.5t-159 136.5l123 96l47 -57q95 -107 191 -107q69 0 115.5 44.5t46.5 113.5q0 49 -41.5 108.5t-103.5 114t-134.5 119t-134.5 123.5t-103.5 129t-41.5 133zM264 762 q0 -102 275 -332l96 -78q53 8 98 49.5t45 94.5q0 52 -30.5 106t-75.5 92l-246 209q-57 0 -109.5 -40.5t-52.5 -100.5z" />
<glyph unicode="&#xa8;" horiz-adv-x="565" d="M0 1278q0 47 34 82t81 35q49 0 82.5 -33.5t33.5 -83.5q0 -47 -34.5 -82t-81.5 -35t-81 35t-34 82zM334 1278q0 47 34 82t81 35q49 0 82.5 -33.5t33.5 -83.5q0 -47 -34.5 -82t-81.5 -35t-81 35t-34 82z" />
<glyph unicode="&#xa9;" horiz-adv-x="1300" d="M90 512q0 112 44.5 215t119.5 178t178 119.5t215 44.5t215 -44.5t178 -119.5t119.5 -178t44.5 -215t-44.5 -215t-119.5 -178t-178 -119.5t-215 -44.5t-215 44.5t-178 119.5t-119.5 178t-44.5 215zM170 512q0 -96 38 -184.5t102 -152.5t152.5 -102t184.5 -38t184.5 38 t152.5 102t102 152.5t38 184.5t-38 184.5t-102 152.5t-152.5 102t-184.5 38t-184.5 -38t-152.5 -102t-102 -152.5t-38 -184.5zM350 514q0 146 86.5 240t231.5 94q95 0 194 -68l-61 -78q-38 31 -70 43.5t-80 12.5q-58 0 -99.5 -38t-59 -89.5t-17.5 -106.5q0 -59 18 -113.5 t61 -95.5t103 -41q48 0 83 13.5t79 44.5l53 -88q-62 -36 -108 -50t-113 -14q-140 0 -220.5 96t-80.5 238z" />
<glyph unicode="&#xaa;" horiz-adv-x="645" d="M20 975q0 57 22.5 100t58 68.5t85 41.5t96 21.5t99.5 5.5v56q0 56 -19.5 86t-72.5 30q-46 0 -98 -25t-85 -61l-67 103q113 94 258 94q106 0 159.5 -59t53.5 -166v-314q0 -47 14 -47l70 21l31 -90q-8 -3 -41.5 -17.5t-56.5 -21t-44 -6.5q-34 0 -58.5 20.5t-35.5 54.5 q-80 -77 -182 -77q-83 0 -135 49t-52 133zM82 571v103h448v-103h-448zM156 979q0 -33 26 -51.5t60 -18.5q59 0 99 51.5t40 110.5v29q-28 0 -47.5 -1t-48.5 -4.5t-49 -11.5t-40 -20.5t-30 -34t-10 -49.5z" />
<glyph unicode="&#xab;" horiz-adv-x="954" d="M113 688l295 334l124 -23l-237 -311l244 -315l-123 -19zM416 688l297 334l125 -23l-238 -311l242 -315l-121 -19z" />
<glyph unicode="&#xac;" horiz-adv-x="1306" d="M147 571v123h1010v-512h-125v389h-885z" />
<glyph unicode="&#xad;" horiz-adv-x="1302" d="M147 442v125h1008v-125h-1008z" />
<glyph unicode="&#xae;" horiz-adv-x="940" d="M68 1235q0 167 119 286t286 119q166 0 287 -119t121 -286t-121 -286.5t-287 -119.5q-167 0 -286 119.5t-119 286.5zM135 1235q0 -139 99.5 -238.5t238.5 -99.5q141 0 240.5 99t99.5 239t-99.5 239t-240.5 99q-139 0 -238.5 -99.5t-99.5 -238.5zM307 1008v460h180 q160 0 160 -131q0 -41 -26.5 -71.5t-67.5 -44.5l149 -213h-122l-134 196h-36v-196h-103zM410 1280h49q86 0 86 61q0 25 -20.5 38.5t-51.5 13.5h-63v-113z" />
<glyph unicode="&#xaf;" horiz-adv-x="561" d="M-31 1221v131h623v-131h-623z" />
<glyph unicode="&#xb0;" horiz-adv-x="794" d="M90 1214q0 128 90 218t217 90t217.5 -90t90.5 -218q0 -127 -90 -217t-218 -90q-127 0 -217 89.5t-90 217.5zM217 1214q0 -76 51.5 -130t128.5 -54t127.5 54t50.5 130t-50.5 130.5t-127.5 54.5t-128.5 -54.5t-51.5 -130.5z" />
<glyph unicode="&#xb1;" horiz-adv-x="1294" d="M139 -2v143h1022v-143h-1022zM139 537v143h439v336h143v-336h440v-143h-440v-338h-143v338h-439z" />
<glyph unicode="&#xb2;" horiz-adv-x="935" d="M119 889v78q144 114 258 231q110 110 184 225t74 205q0 68 -43 111t-119 43q-85 0 -182 -56q-37 -19 -76 -53l-65 96q43 40 94 66q126 66 262 66q80 0 140.5 -23t94 -62t50 -83t16.5 -93q0 -192 -229 -421q-104 -104 -228 -191h479l-38 -139h-672z" />
<glyph unicode="&#xb3;" horiz-adv-x="935" d="M129 971q247 12 380.5 84.5t133.5 185.5q0 47 -20.5 78.5t-57.5 46t-73 20t-82 5.5q-13 0 -29.5 -1t-22.5 -1q-9 -3 -20 -3l-16 97q49 10 92.5 24.5t89.5 38t73 60t27 80.5q0 47 -38 71.5t-105 24.5q-60 0 -131 -30.5t-127 -72.5l-66 95q69 56 170 91.5t193 35.5 q50 0 93.5 -9t83 -29.5t62.5 -58t23 -88.5q0 -81 -57.5 -138.5t-137.5 -86.5q103 -13 171.5 -74.5t68.5 -159.5q0 -49 -16 -96t-61.5 -100t-116 -93t-190.5 -68.5t-273 -33.5z" />
<glyph unicode="&#xb4;" horiz-adv-x="575" d="M63 1169l197 312h250l-287 -312h-160z" />
<glyph unicode="&#xb6;" horiz-adv-x="1024" d="M82 1065q0 200 126.5 302.5t330.5 102.5h393v-110h-115v-1340q0 -92 -67.5 -159.5t-159.5 -67.5q-7 0 -35 4q-30 -55 -83 -88t-118 -33q-92 0 -159.5 68t-67.5 160t67.5 159.5t159.5 67.5v-111q-47 0 -81.5 -34.5t-34.5 -81.5t34.5 -82t81.5 -35t81 35t34 82v776 q-161 0 -274 110.5t-113 274.5zM582 -96h8q47 0 82 34.5t35 81.5v1340h-125v-1456z" />
<glyph unicode="&#xb7;" horiz-adv-x="600" d="M166 532q0 57 39 97.5t96 40.5q55 0 95 -41t40 -97q0 -55 -39.5 -94t-95.5 -39t-95.5 39t-39.5 94z" />
<glyph unicode="&#xb8;" horiz-adv-x="573" d="M66 -393l49 94q88 -47 131 -47q36 0 63 23t27 57t-21 52.5t-57 18.5h-96q-22 0 -25 19q-2 6 -2 18l98 176h97l-60 -112h23q39 0 75 -9.5t68 -28t51 -52t19 -76.5q0 -46 -16.5 -80.5t-42 -55t-62 -33.5t-71 -17.5t-74.5 -4.5q-83 0 -174 58z" />
<glyph unicode="&#xb9;" horiz-adv-x="935" d="M156 1745q180 61 346 135h102v-870h205v-121h-623v121h254v706l-125 -37l-122 -34l-17 51z" />
<glyph unicode="&#xba;" horiz-adv-x="679" d="M27 1159q0 94 36.5 173t109 128t167.5 49q146 0 229.5 -101t83.5 -249t-83.5 -249t-229.5 -101t-229.5 101t-83.5 249zM117 571v103h448v-103h-448zM168 1159q0 -55 17 -108t57.5 -94.5t97.5 -41.5q59 0 99 40.5t55.5 93.5t15.5 110t-15.5 110t-55.5 93.5t-99 40.5 q-46 0 -81 -22.5t-54 -60t-28 -78t-9 -83.5z" />
<glyph unicode="&#xbb;" horiz-adv-x="954" d="M113 367l241 317l-237 309l125 25l297 -334l-306 -334zM416 367l243 317l-237 309l125 25l295 -334l-303 -334z" />
<glyph unicode="&#xbc;" horiz-adv-x="2240" d="M156 1364q180 61 346 135h102v-870h205v-121h-623v121h254v706l-125 -37l-122 -34l-17 51zM735 -45l318 795l313 792h129l-315 -792l-318 -795h-127zM1227 225v82l235 340l234 342h164v-643h153l-16 -59l-19 -62h-118v-225h-164v225h-469zM1401 346h295v246v55l4 62v59 q2 18 2 47q-26 -51 -64 -110l-73 -119l-82 -121z" />
<glyph unicode="&#xbd;" horiz-adv-x="2279" d="M156 1364q180 61 346 135h102v-870h205v-121h-623v121h254v706l-125 -37l-122 -34l-17 51zM735 -45l318 795l313 792h129l-315 -792l-318 -795h-127zM1382 0v78q3 1 7.5 5t14.5 12.5t19 15.5l84 73q66 58 129.5 122.5t125 140t99 151.5t37.5 135q0 67 -43.5 108.5 t-117.5 41.5q-78 0 -153 -37.5t-103 -65.5l-33 49l-33 50l47 34q145 99 312 99q153 0 228 -76t75 -188q0 -75 -41 -161t-96.5 -154t-124.5 -133.5t-112 -99.5t-71 -53h461q-7 -24 -19.5 -73t-19.5 -74h-672z" />
<glyph unicode="&#xbe;" horiz-adv-x="2203" d="M129 588q246 12 379 84.5t133 185.5q0 47 -20.5 78.5t-57.5 46t-73 20t-82 5.5q-10 0 -27 -1t-23 -1q-6 -2 -20 -2l-8 49l-8 47q276 56 276 205q0 46 -36.5 70t-100.5 24q-62 0 -136 -31.5t-122 -71.5l-33 47l-33 48q69 56 170 91.5t193 35.5q50 0 93.5 -9t83 -29.5 t62.5 -58t23 -88.5q0 -81 -58.5 -138t-138.5 -87q104 -11 173 -73t69 -161q0 -49 -16 -96t-61.5 -100t-116 -93t-190.5 -68.5t-273 -33.5zM680 -45l315 795l316 792h127l-316 -792l-315 -795h-127zM1174 225v82l466 682h166v-643h154l-18 -59l-17 -62h-119v-225h-164v225 h-468zM1346 346h296v246v55l5 62v59q2 18 2 47q-39 -76 -138 -227z" />
<glyph unicode="&#xbf;" horiz-adv-x="882" d="M98 88q0 124 84 231t205 144q35 12 42 21.5t7 41.5v252h133v-399q-56 -11 -105.5 -32.5t-92 -54.5t-67.5 -82.5t-25 -109.5q0 -105 74.5 -169t181.5 -64q50 0 106.5 15t89.5 42l55 -117q-45 -33 -123 -49t-147 -16q-63 0 -123 13.5t-113.5 42t-94 68.5t-64 97.5 t-23.5 124.5zM375 1114q0 56 39.5 95.5t95.5 39.5t95.5 -39.5t39.5 -95.5q0 -57 -39 -96t-96 -39q-56 0 -95.5 39.5t-39.5 95.5z" />
<glyph unicode="&#xc0;" horiz-adv-x="1292" d="M37 0l518 1372h186l516 -1372h-210l-168 465h-498l-172 -465h-172zM317 1788h252l195 -311h-160zM434 604h393l-196 533z" />
<glyph unicode="&#xc1;" horiz-adv-x="1292" d="M47 0l518 1372h187l516 -1372h-211l-168 465h-498l-172 -465h-172zM444 604h394l-197 533zM565 1466l197 310h250l-287 -310h-160z" />
<glyph unicode="&#xc2;" horiz-adv-x="1292" d="M37 0l518 1372h186l516 -1372h-210l-168 465h-498l-172 -465h-172zM350 1425l209 318h170l217 -318h-143l-160 168l-156 -168h-137zM434 604h393l-196 533z" />
<glyph unicode="&#xc3;" horiz-adv-x="1292" d="M37 0l518 1372h186l516 -1372h-210l-168 465h-498l-172 -465h-172zM338 1460q13 84 63 144.5t129 60.5q59 0 155.5 -40t133.5 -40q25 0 44.5 15t27.5 38h98q-9 -79 -54 -140.5t-120 -61.5q-59 0 -157.5 40t-149.5 40q-23 0 -42.5 -16.5t-25.5 -39.5h-102zM434 604h393 l-196 533z" />
<glyph unicode="&#xc4;" horiz-adv-x="1292" d="M37 0l518 1372h186l516 -1372h-210l-168 465h-498l-172 -465h-172zM369 1585q0 47 34.5 82t81.5 35t82 -35t35 -82t-35 -82t-82 -35t-81.5 35t-34.5 82zM434 604h393l-196 533zM702 1585q0 47 35 82t82 35t82 -35t35 -82t-35 -82t-82 -35t-82 35t-35 82z" />
<glyph unicode="&#xc5;" horiz-adv-x="1292" d="M37 0l502 1331q-47 26 -73 72.5t-26 101.5q0 86 58.5 144.5t144.5 58.5t142.5 -58t56.5 -145q0 -51 -23 -96.5t-65 -71.5l503 -1337h-210l-168 463h-498l-172 -463h-172zM434 602h393l-196 533zM543 1505q0 -41 28.5 -69.5t69.5 -28.5t69.5 28.5t28.5 69.5t-28.5 70 t-69.5 29t-69.5 -29t-28.5 -70z" />
<glyph unicode="&#xc6;" horiz-adv-x="1626" d="M25 0l616 1358l-29 133h918v-139h-543v-512h479v-148h-479v-547h543v-145h-731v508h-367l-233 -508h-174zM498 655h301v658z" />
<glyph unicode="&#xc7;" horiz-adv-x="1277" d="M94 750q0 161 46.5 299.5t134 241.5t220.5 161.5t298 58.5q120 0 249.5 -41.5t196.5 -119.5l-106 -119q-59 64 -156 100.5t-189 36.5q-102 0 -185 -36.5t-138 -97.5t-92.5 -143.5t-53.5 -170.5t-16 -183q0 -98 17 -185.5t54.5 -165.5t93.5 -134.5t139 -89.5t186 -33 q93 0 194 34.5t168 92.5l88 -137q-80 -68 -210.5 -106t-248.5 -38l-36 -69h24q39 0 75 -9.5t68 -28t51 -52t19 -76.5q0 -46 -16.5 -80.5t-42 -55t-62 -33.5t-71 -17.5t-74.5 -4.5q-85 0 -176 58l51 94q81 -47 131 -47q36 0 63 23t27 57t-21 52.5t-57 18.5h-98q-11 0 -21 7.5 t-10 17.5l4 12l78 140q-187 24 -324 134.5t-204.5 274t-67.5 359.5z" />
<glyph unicode="&#xc8;" horiz-adv-x="1124" d="M147 1368h895v-139h-673v-459h522v-143h-522v-486h673v-141h-866v1235q0 1 -0.5 3.5l-1.5 7.5t-2 11l-8 41l-12 45l-2 12t-2 9t-1 4zM266 1788h250l195 -311h-158z" />
<glyph unicode="&#xc9;" horiz-adv-x="1124" d="M147 1368h895v-139h-673v-459h522v-143h-522v-486h673v-141h-866v1235q0 1 -0.5 3.5l-1.5 7.5t-2 11l-8 41l-12 45l-2 12t-2 9t-1 4zM530 1468l195 312h252l-287 -312h-160z" />
<glyph unicode="&#xca;" horiz-adv-x="1124" d="M147 1370h895v-139h-673v-459h522v-143h-522v-488h673v-141h-866v1237q0 1 -0.5 3t-1.5 7l-2 10l-8 43l-12 43q-1 6 -2 12.5t-2 10t-1 4.5zM315 1425l209 318h172l217 -318h-143l-160 168l-157 -168h-138z" />
<glyph unicode="&#xcb;" horiz-adv-x="1124" d="M143 1370h895v-139h-673v-459h522v-143h-522v-488h673v-141h-866v1237q0 1 -0.5 3t-1.5 7l-2 10l-8 43l-13 43q-1 6 -2 12.5t-1.5 10t-0.5 4.5zM338 1593q0 47 35 82t82 35t80.5 -34.5t33.5 -82.5q0 -47 -33.5 -81.5t-80.5 -34.5q-50 0 -83.5 33.5t-33.5 82.5zM672 1593 q0 47 34.5 82t81.5 35t82 -35t35 -82t-35 -81.5t-82 -34.5q-50 0 -83 33.5t-33 82.5z" />
<glyph unicode="&#xcc;" horiz-adv-x="548" d="M-74 1784h250l195 -311h-158zM147 1368h224v-1368h-195v1233q0 1 -0.5 3t-1.5 7l-2 10l-8 45l-12 45l-2 12t-2 9t-1 4z" />
<glyph unicode="&#xcd;" horiz-adv-x="552" d="M143 1466l195 310h252l-287 -310h-160zM145 1370h224v-1370h-193v1235z" />
<glyph unicode="&#xce;" horiz-adv-x="552" d="M-31 1425l209 318h172l217 -318h-143l-160 168l-155 -168h-140zM145 1368h226v-1368h-195v1233z" />
<glyph unicode="&#xcf;" horiz-adv-x="552" d="M-14 1593q0 47 34.5 82t81.5 35t82 -35t35 -82t-35 -81.5t-82 -34.5t-81.5 34.5t-34.5 81.5zM145 1368h224v-1368h-195v1233q0 1 -0.5 3t-1.5 7l-2 10l-10 45l-8 45zM319 1593q0 47 35 82t82 35t82 -35t35 -82q0 -49 -33.5 -82.5t-83.5 -33.5q-47 0 -82 34.5t-35 81.5z " />
<glyph unicode="&#xd0;" horiz-adv-x="1462" d="M16 678v131h166v547q0 1 -0.5 3t-1.5 7l-2 10l-10 45l-8 45q-6 21 -6 25h383q191 0 336.5 -41.5t252.5 -130t162 -233.5t55 -345q0 -131 -25.5 -243t-79.5 -204.5t-133 -157.5t-190 -100.5t-247 -35.5h-486v678h-166zM373 141h270q109 0 195 31.5t143 85.5t94.5 131.5 t53.5 165t16 190.5q0 317 -155 461t-468 144h-149v-541h317v-131h-317v-537z" />
<glyph unicode="&#xd1;" horiz-adv-x="1462" d="M150 1368h253l725 -999v999h156v-1380h-121l-827 1153v-1141h-158v1233q0 1 -0.5 3t-1.5 7l-2 10l-10 45l-8 45q-6 21 -6 25zM432 1460q8 81 60 143t131 62q59 0 155 -41t133 -41q25 0 46 15t28 38h96q-9 -79 -54 -140.5t-120 -61.5q-59 0 -157.5 39.5t-147.5 39.5 q-23 0 -42.5 -15t-27.5 -38h-100z" />
<glyph unicode="&#xd2;" horiz-adv-x="1509" d="M96 680q0 190 82 351t234.5 259.5t343.5 98.5q144 0 269 -57.5t209.5 -154t132.5 -226t48 -271.5q0 -141 -48.5 -270t-133 -225.5t-209 -154t-268.5 -57.5q-143 0 -267.5 57.5t-209.5 154.5t-134 225.5t-49 269.5zM297 682q0 -104 29.5 -203.5t85 -182t145 -133 t199.5 -50.5q89 0 164.5 33t128.5 89t91 129.5t56 154t18 163.5q0 104 -29.5 203.5t-84.5 181.5t-144.5 132t-199.5 50q-109 0 -198.5 -50t-145 -132.5t-85.5 -181.5t-30 -203zM395 1786h252l195 -311h-160z" />
<glyph unicode="&#xd3;" horiz-adv-x="1509" d="M96 682q0 190 82 351t234.5 259.5t343.5 98.5q144 0 268.5 -57.5t209 -154.5t133 -226.5t48.5 -270.5t-48.5 -270t-133 -225.5t-209 -154t-268.5 -57.5q-191 0 -343.5 98t-234.5 258.5t-82 350.5zM297 682q0 -104 30 -203t85.5 -181.5t145 -132.5t198.5 -50 q110 0 199.5 50t144.5 132t84.5 181.5t29.5 203.5q0 83 -18 163.5t-56 154t-91 129.5t-128.5 89t-164.5 33q-110 0 -199.5 -50.5t-145 -133t-85 -182t-29.5 -203.5zM633 1470l194 312h252l-286 -312h-160z" />
<glyph unicode="&#xd4;" horiz-adv-x="1509" d="M96 680q0 190 82 351t234.5 259.5t343.5 98.5q144 0 269 -57.5t209.5 -154t132.5 -226t48 -271.5q0 -141 -48.5 -270t-133 -225.5t-209 -154t-268.5 -57.5q-143 0 -267.5 57.5t-209.5 154.5t-134 225.5t-49 269.5zM297 682q0 -104 29.5 -203.5t85 -182t145 -133 t199.5 -50.5q89 0 164.5 33t128.5 89t91 129.5t56 154t18 163.5q0 104 -29.5 203.5t-84.5 181.5t-144.5 132t-199.5 50q-109 0 -198.5 -50t-145 -132.5t-85.5 -181.5t-30 -203zM453 1421l209 318h169l218 -318h-142l-162 168l-155 -168h-137z" />
<glyph unicode="&#xd5;" horiz-adv-x="1507" d="M94 682q0 190 82 351t234.5 259.5t343.5 98.5q144 0 268.5 -57.5t209 -154.5t133 -226.5t48.5 -270.5t-48.5 -270t-133 -225.5t-209 -154t-268.5 -57.5q-191 0 -343.5 98t-234.5 258.5t-82 350.5zM295 682q0 -104 30 -203t85.5 -181.5t145 -132.5t198.5 -50 q110 0 199.5 50t144.5 132t84.5 181.5t29.5 203.5q0 83 -18 163.5t-56 154t-91 129.5t-128.5 89t-164.5 33q-110 0 -199.5 -50.5t-145 -133t-85 -182t-29.5 -203.5zM442 1462q8 81 61 143t132 62q58 0 155 -40t132 -40q25 0 45 15t28 38h99q-8 -78 -55 -140t-121 -62 q-59 0 -158 40t-148 40q-44 0 -69 -56h-101z" />
<glyph unicode="&#xd6;" horiz-adv-x="1509" d="M96 682q0 190 82 351t234.5 259.5t343.5 98.5q144 0 268.5 -57.5t209 -154.5t133 -226.5t48.5 -270.5t-48.5 -270t-133 -225.5t-209 -154t-268.5 -57.5q-191 0 -343.5 98t-234.5 258.5t-82 350.5zM297 682q0 -104 30 -203t85.5 -181.5t145 -132.5t198.5 -50 q110 0 199.5 50t144.5 132t84.5 181.5t29.5 203.5q0 83 -18 163.5t-56 154t-91 129.5t-128.5 89t-164.5 33q-110 0 -199.5 -50.5t-145 -133t-85 -182t-29.5 -203.5zM467 1585q0 47 35 82t82 35t81.5 -35t34.5 -82t-34.5 -82t-81.5 -35t-82 35t-35 82zM801 1585q0 47 35 82 t82 35t81.5 -35t34.5 -82t-34.5 -82t-81.5 -35t-82 35t-35 82z" />
<glyph unicode="&#xd7;" horiz-adv-x="1093" d="M145 193l314 311l-314 311l91 90l311 -311l311 311l90 -90l-313 -311l313 -311l-90 -91l-311 312l-311 -312z" />
<glyph unicode="&#xd8;" horiz-adv-x="1507" d="M94 743q0 127 26 240t79.5 209.5t131.5 166t187.5 109t241.5 39.5q196 0 344 -94l102 158l111 -64l-113 -172q108 -112 158.5 -267.5t50.5 -328.5q0 -124 -26.5 -237t-81 -209.5t-132 -167.5t-187 -111.5t-238.5 -40.5q-208 0 -361 107l-129 -197l-106 68l139 209 q-197 212 -197 583zM295 750q0 -260 98 -426l312 475l309 479q-103 90 -260 90q-100 0 -179.5 -36.5t-131 -96.5t-85.5 -141.5t-48.5 -166.5t-14.5 -177zM475 219q115 -106 283 -106q100 0 179 36.5t129.5 96t84 141t47.5 165.5t14 175q0 283 -108 451l-316 -480z" />
<glyph unicode="&#xd9;" horiz-adv-x="1447" d="M145 1368h226v-870q0 -182 88 -282.5t268 -100.5q184 0 284.5 113t100.5 298v842h158v-842q0 -263 -144 -408t-407 -145q-261 0 -402 134t-141 391v737q0 9 -14 63l-10 45zM383 1786h250l194 -309h-157z" />
<glyph unicode="&#xda;" horiz-adv-x="1447" d="M145 1370h226v-870q0 -182 88 -282.5t268 -100.5q184 0 284.5 113t100.5 298v842h158v-842q0 -263 -144 -408t-407 -145q-261 0 -402 134t-141 391v737q0 8 -14 66l-10 43q-2 6 -3.5 12t-2.5 8.5t-1 3.5zM645 1468l195 310h250l-287 -310h-158z" />
<glyph unicode="&#xdb;" horiz-adv-x="1447" d="M145 1370h226v-870q0 -182 88 -282.5t268 -100.5q184 0 284.5 113t100.5 298v842h158v-842q0 -263 -144 -408t-407 -145q-261 0 -402 134t-141 391v737q0 8 -14 66l-10 43q-2 6 -3.5 12t-2.5 8.5t-1 3.5zM438 1425l209 316h172l213 -316h-139l-160 166l-155 -166h-140z " />
<glyph unicode="&#xdc;" horiz-adv-x="1447" d="M145 1370h226v-870q0 -182 88 -282.5t268 -100.5q184 0 284.5 113t100.5 298v842h158v-842q0 -263 -144 -408t-407 -145t-403 132.5t-140 392.5v737q0 8 -14 66l-10 43q-2 6 -3.5 12t-2.5 8.5t-1 3.5zM463 1585q0 47 34 82t81 35t81.5 -35t34.5 -82t-34.5 -82t-81.5 -35 t-81 35t-34 82zM797 1585q0 47 34.5 82t81.5 35t81 -35t34 -82t-34 -82t-81 -35t-81.5 35t-34.5 82z" />
<glyph unicode="&#xdd;" horiz-adv-x="1196" d="M66 1370h219l346 -582l321 582h181l-431 -756v-614h-194v614zM547 1468l194 310h250l-286 -310h-158z" />
<glyph unicode="&#xde;" horiz-adv-x="1177" d="M152 1491h223v-240h203q113 0 203 -23t161.5 -72.5t110.5 -135t39 -201.5q0 -111 -41 -197.5t-112.5 -139.5t-162.5 -80t-196 -27h-207v-373h-191v1354zM373 514h219q138 0 218.5 84t80.5 221t-76 214t-221 77h-221v-596z" />
<glyph unicode="&#xdf;" horiz-adv-x="1130" d="M57 889v112q49 0 78.5 7.5t49 29t30 48.5t21.5 77q19 83 49 145t76 111t113 74t153 25q162 0 253 -83t91 -241q0 -42 -6 -76.5t-21 -62t-29.5 -46.5t-41.5 -39.5t-45 -32t-54 -32.5t-55 -33q-6 -3 -18 -10t-17 -10t-12 -8t-10 -9t-3 -8q0 -7 5.5 -13t21.5 -15.5t26.5 -15 t39.5 -19.5l125 -64q102 -56 160.5 -132.5t58.5 -190.5q0 -183 -108.5 -292.5t-289.5 -109.5q-112 0 -215 41l58 119q87 -26 141 -26q92 0 162.5 66t70.5 171q0 57 -22.5 103.5t-58 78t-79 59t-86.5 52t-78.5 49t-58 58t-22.5 73.5q0 37 29 70t70 61t82.5 59t70.5 78t29 105 q0 182 -164 182q-73 0 -125 -38.5t-77 -103t-35.5 -128t-10.5 -133.5v-971h-170v889h-152z" />
<glyph unicode="&#xe0;" horiz-adv-x="1005" d="M90 246q0 350 584 350v109q0 204 -170 204q-80 0 -162 -32t-131 -89l-84 121q170 133 391 133q160 0 243 -87t83 -248v-508q0 -41 9 -59.5t36 -18.5q1 0 2.5 0.5t5.5 1.5l8 2l29 10l33 8q14 3 18 7l35 -107q-11 -4 -44.5 -18.5t-52.5 -21.5t-48 -14t-52 -7q-60 0 -97 38 t-48 101q-63 -66 -142.5 -105t-164.5 -39q-125 0 -203 72t-78 197zM156 1491h252l194 -311h-160zM264 252q0 -65 43.5 -98t118.5 -33q105 0 176.5 85t71.5 191v66q-41 0 -70 -1t-75 -5t-79 -12t-70.5 -24t-61 -37.5t-39 -55.5t-15.5 -76z" />
<glyph unicode="&#xe1;" d="M90 246q0 350 584 350v109q0 204 -170 204q-80 0 -162 -32t-131 -89l-84 121q170 133 391 133q160 0 243 -87t83 -248v-508q0 -41 9 -59.5t36 -18.5q1 0 2.5 0.5t5.5 1.5l8 2l29 10l33 8q14 3 18 7l35 -107q-11 -4 -44.5 -18.5t-52.5 -21.5t-48 -14t-52 -7q-60 0 -97 38 t-48 101q-63 -66 -142.5 -105t-164.5 -39q-125 0 -203 72t-78 197zM264 252q0 -65 43.5 -98t118.5 -33q105 0 176.5 85t71.5 191v66q-41 0 -70 -1t-75 -5t-79 -12t-70.5 -24t-61 -37.5t-39 -55.5t-15.5 -76zM420 1182l196 311h250l-286 -311h-160z" />
<glyph unicode="&#xe2;" d="M90 246q0 350 584 350v109q0 204 -170 204q-80 0 -162 -32t-131 -89l-84 121q170 133 391 133q160 0 243 -87t83 -248v-508q0 -41 9 -59.5t36 -18.5q1 0 2.5 0.5t5.5 1.5l8 2l29 10l33 8q14 3 18 7l35 -107q-11 -4 -44.5 -18.5t-52.5 -21.5t-48 -14t-52 -7q-60 0 -97 38 t-48 101q-63 -66 -142.5 -105t-164.5 -39q-125 0 -203 72t-78 197zM203 1178l209 315h170l217 -317h-142l-161 167l-156 -165h-137zM264 252q0 -65 43.5 -98t118.5 -33q105 0 176.5 85t71.5 191v66q-41 0 -70 -1t-75 -5t-79 -12t-70.5 -24t-61 -37.5t-39 -55.5t-15.5 -76z " />
<glyph unicode="&#xe3;" d="M90 246q0 350 584 350v109q0 204 -170 204q-80 0 -162 -32t-131 -89l-84 121q170 133 391 133q160 0 243 -87t83 -248v-508q0 -41 9 -59.5t36 -18.5q1 0 2.5 0.5t5.5 1.5l8 2l29 10l33 8q14 3 18 7l35 -107q-11 -4 -44.5 -18.5t-52.5 -21.5t-48 -14t-52 -7q-60 0 -97 38 t-48 101q-63 -66 -142.5 -105t-164.5 -39q-125 0 -203 72t-78 197zM195 1198q8 81 60.5 143t131.5 62q58 0 153 -40t134 -40q25 0 46 15t28 38h96q-9 -79 -54 -140.5t-120 -61.5q-59 0 -157.5 39.5t-147.5 39.5q-45 0 -70 -55h-100zM264 252q0 -65 43.5 -98t118.5 -33 q105 0 176.5 85t71.5 191v66q-41 0 -70 -1t-75 -5t-79 -12t-70.5 -24t-61 -37.5t-39 -55.5t-15.5 -76z" />
<glyph unicode="&#xe4;" d="M90 246q0 350 584 350v109q0 204 -170 204q-80 0 -162 -32t-131 -89l-84 121q170 133 391 133q160 0 243 -87t83 -248v-508q0 -41 9 -59.5t36 -18.5q1 0 2.5 0.5t5.5 1.5l8 2l29 10l33 8q14 3 18 7l35 -107q-11 -4 -44.5 -18.5t-52.5 -21.5t-48 -14t-52 -7q-60 0 -97 38 t-48 101q-63 -66 -142.5 -105t-164.5 -39q-125 0 -203 72t-78 197zM231 1278q0 47 34 82t81 35q50 0 83.5 -33.5t33.5 -83.5q0 -47 -35 -82t-82 -35t-81 35t-34 82zM264 252q0 -65 43.5 -98t118.5 -33q105 0 176.5 85t71.5 191v66q-41 0 -70 -1t-75 -5t-79 -12t-70.5 -24 t-61 -37.5t-39 -55.5t-15.5 -76zM565 1278q0 47 34 82t81 35q50 0 83.5 -33.5t33.5 -83.5q0 -47 -35 -82t-82 -35t-81 35t-34 82z" />
<glyph unicode="&#xe5;" horiz-adv-x="1032" d="M90 246q0 350 584 350v109q0 204 -170 204q-80 0 -162 -32t-131 -89l-84 121q170 133 391 133q160 0 243 -87t83 -248v-508q0 -41 9 -59.5t36 -18.5q1 0 2.5 0.5t5.5 1.5l8 2l29 10l33 8q14 3 18 7l35 -107q-11 -4 -44.5 -18.5t-52.5 -21.5t-48 -14t-52 -7q-60 0 -97 38 t-48 101q-63 -66 -142.5 -105t-164.5 -39q-125 0 -203 72t-78 197zM264 252q0 -65 43.5 -98t118.5 -33q105 0 176.5 85t71.5 191v66q-41 0 -70 -1t-75 -5t-79 -12t-70.5 -24t-61 -37.5t-39 -55.5t-15.5 -76zM315 1331q0 83 60.5 144t142.5 61q86 0 144.5 -59.5t58.5 -145.5 q0 -82 -60.5 -142.5t-142.5 -60.5t-142.5 60.5t-60.5 142.5zM420 1331q0 -41 28.5 -69.5t69.5 -28.5t69.5 28.5t28.5 69.5t-28.5 70t-69.5 29t-69.5 -29t-28.5 -70z" />
<glyph unicode="&#xe6;" horiz-adv-x="1536" d="M84 250q0 65 19.5 118.5t53 91t80.5 67t98 47t111 28.5t113.5 15t110.5 4q2 8 2 24v25q0 46 -7.5 85.5t-26 75.5t-53.5 57t-85 21q-79 0 -161 -32t-134 -89l-84 119q53 61 172.5 98t214.5 37q89 0 165 -32.5t118 -100.5q55 61 137 97t164 36q188 0 285.5 -102.5 t97.5 -290.5q0 -76 -26.5 -115.5t-98.5 -39.5h-521v-35q0 -61 21 -122t57.5 -110t92.5 -79.5t120 -30.5q69 0 143.5 24.5t122.5 67.5l82 -125q-67 -53 -159 -82t-181 -29q-246 0 -393 201q-73 -106 -157 -152.5t-211 -46.5q-130 0 -206.5 73.5t-76.5 201.5zM260 262 q0 -69 45 -105t115 -36q115 0 181.5 89t66.5 208v71h-29q-48 0 -95.5 -5.5t-100 -21t-92 -40t-65.5 -66t-26 -94.5zM842 621h418q28 0 38.5 8.5t10.5 36.5q0 68 -17.5 121t-63.5 89.5t-116 36.5q-112 0 -181 -86t-89 -206z" />
<glyph unicode="&#xe7;" horiz-adv-x="921" d="M90 508q0 150 56 270t168.5 192t263.5 72q72 0 152 -29t142 -75l-92 -119q-58 51 -107 70.5t-122 19.5q-70 0 -125.5 -36.5t-87.5 -94.5t-49 -123t-17 -129q0 -68 17 -137.5t50 -132t91 -102t131 -39.5t125 20.5t123 69.5l78 -129q-94 -59 -163.5 -81t-174.5 -22l-37 -67 h25q39 0 75 -9.5t68 -28t51 -52t19 -76.5q0 -191 -261 -191q-89 0 -180 58l49 94q88 -47 131 -47q36 0 63.5 23t27.5 57t-21 52.5t-57 18.5h-96q-33 0 -33 25q0 1 0.5 2.5l1.5 4.5t2 5l80 142q-110 24 -195.5 105.5t-128.5 191.5t-43 227z" />
<glyph unicode="&#xe8;" d="M90 498q0 81 16.5 158.5t52.5 147.5t87 123t125 84t161 31q178 0 287 -105t109 -282q0 -131 -105 -131h-553v-20q0 -67 18.5 -134t54 -124.5t94 -93t130.5 -35.5q67 0 140.5 26t123.5 68l76 -123q-138 -115 -344 -115q-112 0 -202.5 41t-149 112.5t-90 166.5t-31.5 205z M186 1491h252l195 -311h-160zM283 651h428q23 0 28.5 8.5t5.5 34.5q0 92 -53 155.5t-143 63.5q-97 0 -172 -80.5t-94 -181.5z" />
<glyph unicode="&#xe9;" d="M90 498q0 81 16.5 158.5t52.5 147.5t87 123t125 84t161 31q178 0 287 -105t109 -282q0 -131 -105 -131h-553v-20q0 -67 18.5 -134t54 -124.5t94 -93t130.5 -35.5q67 0 140.5 26t123.5 68l76 -123q-138 -115 -344 -115q-112 0 -202.5 41t-149 112.5t-90 166.5t-31.5 205z M283 651h428q23 0 28.5 8.5t5.5 34.5q0 92 -53 155.5t-143 63.5q-97 0 -172 -80.5t-94 -181.5zM449 1180l196 311h250l-287 -311h-159z" />
<glyph unicode="&#xea;" d="M90 498q0 81 16.5 158.5t52.5 147.5t87 123t125 84t161 31q178 0 287 -105t109 -282q0 -131 -105 -131h-553v-20q0 -67 18.5 -134t54 -124.5t94 -93t130.5 -35.5q67 0 140.5 26t123.5 68l76 -123q-138 -115 -344 -115q-112 0 -202.5 41t-149 112.5t-90 166.5t-31.5 205z M236 1176l208 315h170l217 -317h-141l-162 167l-155 -165h-137zM283 651h428q23 0 28.5 8.5t5.5 34.5q0 92 -53 155.5t-143 63.5q-97 0 -172 -80.5t-94 -181.5z" />
<glyph unicode="&#xeb;" d="M90 498q0 81 16.5 158.5t52.5 147.5t87 123t125 84t161 31q178 0 287 -105t109 -282q0 -131 -105 -131h-553v-20q0 -67 18.5 -134t54 -124.5t94 -93t130.5 -35.5q67 0 140.5 26t123.5 68l76 -123q-138 -115 -344 -115q-112 0 -202.5 41t-149 112.5t-90 166.5t-31.5 205z M262 1278q0 47 34 82t81 35q49 0 83 -33.5t34 -83.5q0 -47 -35 -82t-82 -35t-81 35t-34 82zM283 651h428q23 0 28.5 8.5t5.5 34.5q0 92 -53 155.5t-143 63.5q-97 0 -172 -80.5t-94 -181.5zM596 1278q0 47 34 82t81 35q49 0 82.5 -33.5t33.5 -83.5q0 -47 -34.5 -82t-81.5 -35 t-81 35t-34 82z" />
<glyph unicode="&#xec;" horiz-adv-x="512" d="M-98 1491h252l194 -311h-160zM147 1018h195v-1018h-170v897q0 2 -12.5 58t-12.5 63z" />
<glyph unicode="&#xed;" horiz-adv-x="512" d="M139 1180l197 311h250l-287 -311h-160zM147 1018h195v-1018h-170v897q0 2 -12.5 58t-12.5 63z" />
<glyph unicode="&#xee;" horiz-adv-x="512" d="M-43 1178l209 315h170l217 -317h-141l-162 167l-156 -165h-137zM147 1018h195v-1018h-170v897q0 2 -12.5 58t-12.5 63z" />
<glyph unicode="&#xef;" horiz-adv-x="512" d="M-25 1278q0 47 34 82t81 35q50 0 83.5 -33.5t33.5 -83.5q0 -47 -35 -82t-82 -35t-81 35t-34 82zM147 1018h195v-1018h-170v897q0 2 -12.5 58t-12.5 63zM309 1278q0 47 34 82t81 35q50 0 83.5 -33.5t33.5 -83.5q0 -47 -35 -82t-82 -35t-81 35t-34 82z" />
<glyph unicode="&#xf0;" horiz-adv-x="1097" d="M92 506q0 143 53 261.5t158.5 192.5t245.5 74q70 0 137 -26q-82 162 -197 303l-215 -119l-63 82l213 119l-59 65l-58 55l113 68l55 -53q32 -28 68 -70l219 121l57 -86l-207 -115q394 -472 394 -872q0 -106 -30.5 -200.5t-87 -167.5t-144.5 -115.5t-195 -42.5t-195 42.5 t-144.5 115.5t-87 167.5t-30.5 200.5zM272 506q0 -53 8 -105.5t28.5 -107.5t51 -96.5t79.5 -68t110 -26.5q76 0 132.5 39t86 102t43.5 129t14 134q0 53 -8 106t-28 108t-50.5 96.5t-79.5 68t-110 26.5t-110 -27t-79.5 -69t-51 -97t-28.5 -107.5t-8 -104.5z" />
<glyph unicode="&#xf1;" horiz-adv-x="1120" d="M96 1010l187 24q31 -82 39 -145q68 68 150 110.5t167 42.5q160 0 235.5 -96.5t75.5 -265.5v-680h-168v625q0 47 -2 77.5t-11.5 70t-27 62.5t-51 39.5t-80.5 16.5q-70 0 -143.5 -39t-134.5 -96v-756h-168v721q0 72 -17 156t-51 133zM240 1198q13 84 63 144.5t129 60.5 q59 0 155.5 -40t133.5 -40q47 0 74 53h96q-9 -79 -54 -140.5t-120 -61.5q-59 0 -157.5 39.5t-147.5 39.5q-23 0 -43.5 -16t-26.5 -39h-102z" />
<glyph unicode="&#xf2;" horiz-adv-x="1097" d="M90 508q0 103 30.5 198.5t87 170.5t145 120t196.5 45q110 0 199 -44t145.5 -118.5t86.5 -170t30 -201.5t-30 -201.5t-86.5 -170.5t-145.5 -119t-199 -44q-109 0 -198 44.5t-145 119.5t-86 170.5t-30 200.5zM197 1489h249l197 -311h-160zM270 508q0 -65 16.5 -132.5 t48 -130.5t87.5 -103t127 -40q61 0 110.5 26t80.5 67t51.5 95.5t29 108.5t8.5 109q0 69 -15 136.5t-46 129.5t-88 100.5t-131 38.5q-61 0 -110 -25.5t-80 -66.5t-51.5 -95.5t-29 -108.5t-8.5 -109z" />
<glyph unicode="&#xf3;" horiz-adv-x="1097" d="M90 508q0 103 30.5 198.5t87 170.5t145 120t196.5 45q110 0 199 -44t145.5 -118.5t86.5 -170t30 -201.5t-30 -201.5t-86.5 -170.5t-145.5 -119t-199 -44q-109 0 -198 44.5t-145 119.5t-86 170.5t-30 200.5zM270 508q0 -65 16.5 -132.5t48 -130.5t87.5 -103t127 -40 q61 0 110.5 26t80.5 67t51.5 95.5t29 108.5t8.5 109q0 69 -15 136.5t-46 129.5t-88 100.5t-131 38.5q-61 0 -110 -25.5t-80 -66.5t-51.5 -95.5t-29 -108.5t-8.5 -109zM469 1178l195 311h251l-286 -311h-160z" />
<glyph unicode="&#xf4;" horiz-adv-x="1097" d="M90 508q0 103 30.5 198.5t87 170.5t145 120t196.5 45q110 0 199 -44t145.5 -118.5t86.5 -170t30 -201.5t-30 -201.5t-86.5 -170.5t-145.5 -119t-199 -44q-109 0 -198 44.5t-145 119.5t-86 170.5t-30 200.5zM254 1174l209 315h170l217 -318h-141l-162 168l-156 -165h-137z M270 508q0 -65 16.5 -132.5t48 -130.5t87.5 -103t127 -40q61 0 110.5 26t80.5 67t51.5 95.5t29 108.5t8.5 109q0 69 -15 136.5t-46 129.5t-88 100.5t-131 38.5q-61 0 -110 -25.5t-80 -66.5t-51.5 -95.5t-29 -108.5t-8.5 -109z" />
<glyph unicode="&#xf5;" horiz-adv-x="1097" d="M90 508q0 103 30.5 198.5t87 170.5t145 120t196.5 45q110 0 199 -44t145.5 -118.5t86.5 -170t30 -201.5t-30 -201.5t-86.5 -170.5t-145.5 -119t-199 -44q-109 0 -198 44.5t-145 119.5t-86 170.5t-30 200.5zM248 1198q8 81 60.5 143t131.5 62q58 0 153 -40t134 -40 q25 0 46 15t28 38h96q-9 -79 -54 -140.5t-120 -61.5q-59 0 -157.5 39.5t-147.5 39.5q-45 0 -70 -55h-100zM270 508q0 -65 16.5 -132.5t48 -130.5t87.5 -103t127 -40q61 0 110.5 26t80.5 67t51.5 95.5t29 108.5t8.5 109q0 69 -15 136.5t-46 129.5t-88 100.5t-131 38.5 q-61 0 -110 -25.5t-80 -66.5t-51.5 -95.5t-29 -108.5t-8.5 -109z" />
<glyph unicode="&#xf6;" horiz-adv-x="1097" d="M90 508q0 103 30.5 198.5t87 170.5t145 120t196.5 45q110 0 199 -44t145.5 -118.5t86.5 -170t30 -201.5t-30 -201.5t-86.5 -170.5t-145.5 -119t-199 -44q-109 0 -198 44.5t-145 119.5t-86 170.5t-30 200.5zM270 508q0 -65 16.5 -132.5t48 -130.5t87.5 -103t127 -40 q61 0 110.5 26t80.5 67t51.5 95.5t29 108.5t8.5 109q0 69 -15 136.5t-46 129.5t-88 100.5t-131 38.5q-61 0 -110 -25.5t-80 -66.5t-51.5 -95.5t-29 -108.5t-8.5 -109zM272 1278q0 47 35 82t82 35t81 -35t34 -82t-34 -82t-81 -35t-82 35t-35 82zM606 1278q0 47 35 82t82 35 t82 -35t35 -82t-35 -82t-82 -35t-82 35t-35 82z" />
<glyph unicode="&#xf7;" horiz-adv-x="1290" d="M139 432v143h1022v-143h-1022zM522 164q0 51 37 87t88 36t87 -36t36 -87t-36 -87t-87 -36t-88 36t-37 87zM522 846q0 51 37 88t88 37t87 -37t36 -88t-36 -87t-87 -36t-88 36t-37 87z" />
<glyph unicode="&#xf8;" horiz-adv-x="1099" d="M90 508q0 103 30.5 198.5t87 170.5t145 120t196.5 45q117 0 221 -55l90 146l103 -56l-101 -164q75 -76 111.5 -182.5t36.5 -222.5q0 -106 -30 -201.5t-86.5 -170.5t-145.5 -119t-199 -44q-124 0 -227 62l-115 -176l-96 63l120 187q-141 149 -141 399zM264 508 q0 -143 60 -248l370 604q-64 49 -145 49q-61 0 -111 -25.5t-81.5 -66.5t-53 -95.5t-30.5 -108.5t-9 -109zM397 162q66 -60 152 -60q61 0 111 25.5t81.5 67t53 95.5t30.5 108.5t9 109.5q0 148 -60 260z" />
<glyph unicode="&#xf9;" horiz-adv-x="1132" d="M137 1018h197v-627q0 -43 2.5 -75t12.5 -70t27.5 -62.5t50 -41.5t77.5 -17q116 0 197 73t81 187v512q0 1 -13 58t-13 63h196v-819q0 -41 9 -59.5t36 -18.5q1 0 3 0.5t5.5 1.5t6.5 2l32 10l31 8q15 3 19 7l34 -107q-12 -5 -45 -18.5t-52 -21t-47.5 -14.5t-51.5 -7 q-60 0 -96.5 38t-47.5 101q-64 -65 -146.5 -106.5t-166.5 -41.5q-160 0 -235.5 97t-75.5 266v561q0 1 -13.5 58t-13.5 63zM195 1489h251l195 -311h-160z" />
<glyph unicode="&#xfa;" horiz-adv-x="1132" d="M137 1018h197v-627q0 -43 2.5 -75t12.5 -70t27.5 -62.5t50 -41.5t77.5 -17q116 0 197 73t81 187v512q0 1 -13 58t-13 63h196v-819q0 -41 9 -59.5t36 -18.5q1 0 3 0.5t5.5 1.5t6.5 2l32 10l31 8q15 3 19 7l34 -107q-12 -5 -45 -18.5t-52 -21t-47.5 -14.5t-51.5 -7 q-60 0 -96.5 38t-47.5 101q-64 -65 -146.5 -106.5t-166.5 -41.5q-160 0 -235.5 97t-75.5 266v561q0 1 -13.5 58t-13.5 63zM465 1178l194 311h250l-286 -311h-158z" />
<glyph unicode="&#xfb;" horiz-adv-x="1132" d="M137 1018h197v-627q0 -43 2.5 -75t12.5 -70t27.5 -62.5t50 -41.5t77.5 -17q116 0 197 73t81 187v512q0 1 -13 58t-13 63h196v-819q0 -41 9 -59.5t36 -18.5q1 0 3 0.5t5.5 1.5t6.5 2l32 10l31 8q15 3 19 7l34 -107q-12 -5 -45 -18.5t-52 -21t-47.5 -14.5t-51.5 -7 q-60 0 -96.5 38t-47.5 101q-64 -65 -146.5 -106.5t-166.5 -41.5q-160 0 -235.5 97t-75.5 266v561q0 1 -13.5 58t-13.5 63zM246 1159l209 316h172l217 -318h-144l-159 168l-156 -166h-139z" />
<glyph unicode="&#xfc;" horiz-adv-x="1132" d="M137 1018h197v-627q0 -43 2.5 -75t12.5 -70t27.5 -62.5t50 -41.5t77.5 -17q116 0 197 73t81 187v512q0 1 -13 58t-13 63h196v-819q0 -41 9 -59.5t36 -18.5q1 0 3 0.5t5.5 1.5t6.5 2l32 10l31 8q15 3 19 7l34 -107q-12 -5 -45 -18.5t-52 -21t-47.5 -14.5t-51.5 -7 q-60 0 -96.5 38t-47.5 101q-64 -65 -146.5 -106.5t-166.5 -41.5q-160 0 -235.5 97t-75.5 266v561q0 1 -13.5 58t-13.5 63zM264 1278q0 50 34 83.5t83 33.5q47 0 81 -35t34 -82t-34 -82t-81 -35t-82 35t-35 82zM598 1278q0 50 34 83.5t83 33.5q47 0 81.5 -35t34.5 -82 t-34.5 -82t-81.5 -35t-82 35t-35 82z" />
<glyph unicode="&#xfd;" horiz-adv-x="933" d="M25 1018h184l270 -774l271 774h159l-360 -1022q-20 -60 -43 -113.5t-59.5 -116t-77 -106.5t-96.5 -74t-117 -30h-78v137h22q49 0 91.5 21t72 50.5t57 75.5t43 82.5t33.5 85.5zM408 1169l196 312h250l-287 -312h-159z" />
<glyph unicode="&#xfe;" horiz-adv-x="1140" d="M143 1561h197v-664q135 135 309 135q78 0 144 -29.5t112 -80t78.5 -116.5t48 -139t15.5 -149q0 -108 -30 -205.5t-85.5 -172.5t-141 -119t-188.5 -44q-157 0 -262 111v-522h-168v1876q0 1 -0.5 3t-1.5 7l-2 10l-8 37q-17 57 -17 62zM340 418q0 -135 68 -226.5t188 -91.5 q73 0 128.5 40t84.5 104.5t43 131.5t14 134q0 69 -14 133t-43.5 123t-84.5 95t-128 36q-71 0 -138 -37.5t-118 -97.5v-344z" />
<glyph unicode="&#xff;" horiz-adv-x="933" d="M25 1018h184l270 -774l271 774h159l-360 -1022q-20 -60 -43 -113.5t-59.5 -116t-77 -106.5t-96.5 -74t-117 -30h-78v137h22q49 0 91.5 21t72 50.5t57 75.5t43 82.5t33.5 85.5zM201 1286q0 47 34.5 82t81.5 35q49 0 83 -33.5t34 -83.5q0 -47 -35 -82t-82 -35t-81.5 35 t-34.5 82zM537 1286q0 48 33.5 82.5t80.5 34.5q49 0 83 -33.5t34 -83.5q0 -47 -35 -82t-82 -35t-80.5 34.5t-33.5 82.5z" />
<glyph unicode="&#x152;" horiz-adv-x="2146" d="M104 745q0 127 26 240t79.5 209.5t131.5 166t187.5 109t241.5 39.5q292 0 457 -213v195h864v-143h-674v-508h522v-148h-522v-547h674v-145h-866v193q-177 -218 -467 -218q-131 0 -240 41.5t-184.5 113.5t-128 170t-77 210t-24.5 235zM305 743q0 -92 14 -177.5t48 -168 t85.5 -143.5t131.5 -98t180 -37q101 0 181.5 37t131.5 98t85.5 143.5t48.5 168.5t14 179q0 77 -10.5 149t-32 143.5t-58.5 131t-86.5 105t-119.5 71t-154 25.5q-100 0 -180 -37t-131.5 -98t-85.5 -144t-48 -169t-14 -179z" />
<glyph unicode="&#x153;" horiz-adv-x="1724" d="M90 508q0 82 19.5 160t58.5 145.5t93 118.5t129 80.5t161 29.5q117 0 213.5 -52t157.5 -150q58 94 150 148t200 54q171 0 277 -108t106 -279q0 -131 -96 -131h-547q0 -61 10.5 -118t34.5 -110t59.5 -92.5t89 -63t119.5 -23.5q62 0 132 27t118 69l72 -125 q-131 -115 -342 -115q-120 0 -221.5 51.5t-163.5 147.5q-61 -98 -156 -148.5t-213 -50.5q-88 0 -163.5 29t-129.5 80t-92.5 118.5t-57 146t-18.5 161.5zM266 508q0 -66 17 -134t49.5 -130.5t89.5 -102t129 -39.5q61 0 111 25.5t81 67t52.5 96t30 108.5t8.5 109 q0 69 -15.5 136.5t-47 129.5t-89 100.5t-131.5 38.5q-61 0 -111 -25.5t-81.5 -66.5t-53 -95.5t-30.5 -108.5t-9 -109zM1026 651h414q16 0 21.5 0.5t14 3.5t11 11t2.5 22q0 97 -53 161t-148 64q-98 0 -170.5 -80t-91.5 -182z" />
<glyph unicode="&#x178;" horiz-adv-x="1196" d="M66 1370h219l346 -582l321 582h181l-431 -756v-614h-194v614zM334 1585q0 49 34 83t83 34t82.5 -33.5t33.5 -83.5t-33.5 -83.5t-82.5 -33.5t-83 34t-34 83zM668 1585q0 47 34.5 82t81.5 35q50 0 83.5 -34t33.5 -83t-33.5 -83t-83.5 -34q-47 0 -81.5 35t-34.5 82z" />
<glyph unicode="&#x2c6;" horiz-adv-x="563" d="M-16 1159l209 316h169l218 -318h-142l-162 168l-155 -166h-137z" />
<glyph unicode="&#x2dc;" horiz-adv-x="722" d="M33 1198q8 81 60.5 143t131.5 62q58 0 153 -40t134 -40q25 0 46 15t28 38h96q-9 -79 -54 -140.5t-120 -61.5q-59 0 -157.5 39.5t-147.5 39.5q-45 0 -70 -55h-100z" />
<glyph unicode="&#x2000;" horiz-adv-x="950" />
<glyph unicode="&#x2001;" horiz-adv-x="1901" />
<glyph unicode="&#x2002;" horiz-adv-x="950" />
<glyph unicode="&#x2003;" horiz-adv-x="1901" />
<glyph unicode="&#x2004;" horiz-adv-x="633" />
<glyph unicode="&#x2005;" horiz-adv-x="475" />
<glyph unicode="&#x2006;" horiz-adv-x="316" />
<glyph unicode="&#x2007;" horiz-adv-x="316" />
<glyph unicode="&#x2008;" horiz-adv-x="237" />
<glyph unicode="&#x2009;" horiz-adv-x="380" />
<glyph unicode="&#x200a;" horiz-adv-x="105" />
<glyph unicode="&#x2010;" horiz-adv-x="641" d="M84 459v153h473v-153h-473z" />
<glyph unicode="&#x2011;" horiz-adv-x="641" d="M84 459v153h473v-153h-473z" />
<glyph unicode="&#x2012;" horiz-adv-x="641" d="M84 459v153h473v-153h-473z" />
<glyph unicode="&#x2013;" horiz-adv-x="1028" d="M16 471v127h994v-127h-994z" />
<glyph unicode="&#x2014;" horiz-adv-x="1744" d="M16 471v125h1710v-125h-1710z" />
<glyph unicode="&#x2018;" horiz-adv-x="585" d="M145 1161q0 183 209 340q42 -39 70 -69q-5 -6 -28.5 -30t-35.5 -38t-24 -36.5t-12 -41.5q0 -21 16 -37l35 -32q51 -51 51 -107q0 -54 -35.5 -88.5t-89.5 -34.5q-71 0 -113.5 51t-42.5 123z" />
<glyph unicode="&#x2019;" horiz-adv-x="585" d="M154 1378q0 54 36.5 88.5t90.5 34.5q71 0 112 -50.5t41 -123.5q0 -183 -209 -340q-30 28 -69 70q6 6 28.5 29.5t35 38t24.5 36.5t12 41t-16 35l-35 35q-51 51 -51 106z" />
<glyph unicode="&#x201a;" horiz-adv-x="565" d="M141 131q0 54 36.5 88.5t90.5 34.5q71 0 112.5 -51t41.5 -123q0 -183 -209 -340q-36 34 -70 70q6 7 28.5 30t35.5 37.5t25 37t12 40.5q0 20 -17 37l-34 33q-52 52 -52 106z" />
<glyph unicode="&#x201c;" horiz-adv-x="997" d="M145 1161q0 183 209 340q42 -39 70 -69q-5 -6 -28.5 -30t-35.5 -38t-24 -36.5t-12 -41.5q0 -21 16 -37l35 -32q51 -51 51 -107q0 -54 -35.5 -88.5t-89.5 -34.5q-71 0 -113.5 51t-42.5 123zM545 1161q0 183 209 340q36 -33 69 -69q-5 -6 -28.5 -30t-35.5 -38t-24 -36.5 t-12 -41.5q0 -21 16 -37l35 -32q51 -51 51 -107q0 -54 -35.5 -88.5t-89.5 -34.5q-71 0 -113 51t-42 123z" />
<glyph unicode="&#x201d;" horiz-adv-x="997" d="M162 1378q0 54 36.5 88.5t90.5 34.5q71 0 112 -50.5t41 -123.5q0 -183 -209 -340q-30 28 -69 70q6 6 28.5 29.5t35 38t24.5 36.5t12 41t-16 35l-35 35q-51 51 -51 106zM561 1378q0 54 36.5 88.5t90.5 34.5q71 0 112.5 -51t41.5 -123q0 -183 -209 -340q-36 34 -70 70 q6 7 28.5 30t35.5 37.5t25 37t12 40.5t-17 35l-35 35q-51 51 -51 106z" />
<glyph unicode="&#x201e;" horiz-adv-x="976" d="M154 131q0 54 36.5 88.5t90.5 34.5q71 0 112 -50.5t41 -123.5q0 -183 -209 -340q-30 28 -69 70q6 6 28.5 29.5t35 38t24.5 36.5t12 41q0 21 -16 37l-35 33q-51 51 -51 106zM541 131q0 54 36.5 88.5t90.5 34.5q71 0 112 -50.5t41 -123.5q0 -183 -209 -340q-30 28 -69 70 q6 6 28.5 29.5t35 38t24.5 36.5t12 41q0 21 -16 37l-35 33q-51 51 -51 106z" />
<glyph unicode="&#x2022;" horiz-adv-x="903" d="M123 731q0 137 96.5 233.5t233.5 96.5q136 0 231.5 -96.5t95.5 -233.5t-95.5 -233.5t-231.5 -96.5q-137 0 -233.5 96.5t-96.5 233.5z" />
<glyph unicode="&#x2026;" horiz-adv-x="1462" d="M168 109q0 57 39 96t96 39q55 0 95 -40t40 -95q0 -56 -40 -96t-95 -40t-95 40t-40 96zM600 109q0 57 39 96t96 39q55 0 95 -40t40 -95q0 -56 -40 -96t-95 -40t-95 40t-40 96zM1032 109q0 57 39 96t96 39q56 0 96 -40t40 -95t-40.5 -95.5t-95.5 -40.5t-95 40t-40 96z" />
<glyph unicode="&#x202f;" horiz-adv-x="380" />
<glyph unicode="&#x2039;" horiz-adv-x="610" d="M92 682l297 336l125 -25l-238 -311l242 -315l-121 -17z" />
<glyph unicode="&#x203a;" horiz-adv-x="673" d="M123 362l244 316l-238 311l125 25l295 -336l-303 -332z" />
<glyph unicode="&#x205f;" horiz-adv-x="475" />
<glyph unicode="&#x20ac;" horiz-adv-x="1073" d="M27 362l18 87h162q-4 24 -4 36v37v31q0 23 2 33h-129l18 86h123q41 176 174 282.5t338 106.5q107 0 217 -35l-31 -133q-73 41 -186 41q-139 0 -219.5 -71.5t-110.5 -190.5h467l-18 -86h-465q-2 -8 -2 -25v-41q0 -25 4 -71h432l-18 -87h-396q33 -114 116.5 -182.5 t217.5 -68.5q104 0 181 39l45 -130q-110 -40 -230 -40q-208 0 -338.5 103.5t-173.5 278.5h-194z" />
<glyph unicode="&#x2122;" horiz-adv-x="1163" d="M100 1395v75h396v-75h-148v-383h-102v383h-146zM541 1010v460h135l112 -296l113 296h131v-460h-100v309l-55 -141l-56 -142l-10 -26h-61l-62 161l-61 156v-317h-86z" />
<glyph unicode="&#xe000;" horiz-adv-x="1013" d="M0 0v1014h1014v-1014h-1014z" />
<glyph unicode="&#xfb01;" horiz-adv-x="1163" d="M41 889v106q3 0 22.5 2t25.5 2.5t23.5 4t24.5 6.5t20 9t19.5 14t13 19t9.5 25q6 29 14.5 85.5t9.5 64.5q31 167 133.5 257.5t272.5 90.5q124 0 222 -59.5t138 -172.5l-170 -51q-13 72 -63.5 114t-122.5 42q-271 0 -271 -430h635v-1020h-168v891h-464v-891h-170v891h-154z " />
<glyph unicode="&#xfb02;" horiz-adv-x="1163" d="M41 889v106l49 4q95 7 109 78q6 28 12.5 80.5t9.5 69.5q30 165 133 256.5t273 91.5q59 0 124 -17t105 -47l133 54v-1567h-168v1302q0 68 -60 108t-130 40q-54 0 -96.5 -15t-70.5 -38t-48 -60.5t-30 -71t-16 -82.5t-7 -82t-1 -81h293l-37 -129h-256v-891h-167v891h-154z " />
</font>
</defs>
</svg>
